<?xml version="1.0" encoding="utf-8"?>
<!-- Generator: Adobe Illustrator 27.5.0, SVG Export Plug-In . SVG Version: 6.00 Build 0)  -->
<svg version="1.1" xmlns="http://www.w3.org/2000/svg" xmlns:xlink="http://www.w3.org/1999/xlink" x="0px" y="0px"
	 viewBox="0 0 750 500" style="enable-background:new 0 0 750 500;" xml:space="preserve">
<g id="BACKGROUND">
</g>
<g id="OBJECTS">
	<path style="fill:#002958;" d="M686.487,399.67c-1.187-3.126-2.372-6.235-3.547-9.348c-3.201-8.477-6.39-16.958-9.601-25.431
		c-0.669-1.765-0.719-1.781-2.359-0.98c-12.838,6.268-26.016,11.811-38.779,18.24c-2.125,1.07-1.992,0.958-1.207,3.074
		c4.769,12.858,9.515,25.724,14.273,38.586c0.846,2.285,0.857,2.284-1.228,3.609c-0.888,0.564-1.784,1.117-2.781,1.741
		c-0.792-0.926-1.025-1.963-1.378-2.916c-12.331-33.299-24.646-66.604-36.965-99.907c-10.903-29.475-21.805-58.95-32.713-88.423
		c-11.191-30.239-22.388-60.475-33.581-90.713c-0.972-2.626-1.281-2.395,1.527-3.375c3.168-1.106,2.881-1.693,4.218,1.941
		c5.243,14.249,10.535,28.48,15.814,42.715c0.673,1.813,0.67,1.762,2.587,1.013c11.027-4.308,21.761-9.307,32.7-13.823
		c1.961-0.81,3.955-1.541,5.917-2.348c1.601-0.659,1.617-0.695,1.023-2.296c-1.789-4.821-3.594-9.637-5.406-14.45
		c-3.51-9.32-7.033-18.635-10.545-27.954c-0.689-1.827-0.698-1.892,1.211-2.593c4.127-1.515,3.289-2.171,4.946,2.23
		c9.061,24.064,18.121,48.129,27.172,72.197c8.534,22.693,17.048,45.393,25.589,68.083c9.088,24.142,18.203,48.273,27.295,72.413
		c6.733,17.876,13.448,35.758,20.169,53.638c0.716,1.904,0.724,1.93-1.024,3.102C688.808,398.371,687.906,399.233,686.487,399.67z
		 M636.303,266.779c-0.748-0.108-1.227,0.261-1.717,0.507c-12.7,6.358-25.394,12.728-37.843,19.573
		c-1.787,0.982-1.792,1.016-1.046,3.035c3.197,8.65,6.407,17.295,9.61,25.942c1.615,4.362,3.22,8.728,4.84,13.088
		c0.699,1.882,0.715,1.885,2.537,0.89c1.648-0.9,3.265-1.858,4.931-2.722c10.944-5.67,21.897-11.321,32.847-16.98
		c1.915-0.99,1.918-0.996,1.193-2.928c-3.985-10.621-7.945-21.251-11.98-31.853C638.578,272.452,637.678,269.483,636.303,266.779z
		 M654.493,314.797c-0.647,0.256-1.041,0.374-1.399,0.56c-12.746,6.619-25.575,13.082-38.187,19.957
		c-2.313,1.261-2.009,0.97-1.221,3.105c4.271,11.556,8.527,23.118,12.827,34.664c0.532,1.43,0.831,2.979,1.868,4.371
		c4.447-2.145,8.846-4.28,13.256-6.391c8.979-4.298,18.177-8.128,27.077-12.597c1.866-0.937,1.862-0.952,1.122-2.922
		c-3.932-10.464-7.863-20.929-11.798-31.392C656.892,321.104,655.731,318.062,654.493,314.797z M592.818,282.016
		c0.513-0.131,0.687-0.14,0.826-0.215c12.92-6.993,25.984-13.704,39.17-20.181c1.414-0.695,1.409-0.748,0.754-2.492
		c-4.617-12.298-9.24-24.595-13.865-36.89c-0.731-1.943-0.759-1.976-2.549-1.105c-12.628,6.139-25.632,11.432-38.468,17.103
		c-1.783,0.788-1.798,0.782-1.11,2.644c3.875,10.485,7.754,20.968,11.635,31.45C590.397,275.534,591.595,278.733,592.818,282.016z
		 M602.605,178.438c-0.539,0.196-1.155,0.411-1.764,0.643c-6.64,2.526-13.113,5.444-19.624,8.275
		c-6.135,2.668-12.361,5.127-18.536,7.705c-1.774,0.741-1.775,0.793-1.168,2.437c4.212,11.408,8.43,22.814,12.654,34.217
		c0.639,1.724,0.674,1.755,2.431,0.993c12.807-5.548,25.656-11.001,38.266-16.989c1.978-0.939,2.005-0.961,1.223-3.044
		c-4.1-10.927-8.218-21.848-12.329-32.771c-0.115-0.306-0.218-0.616-0.34-0.918C603.286,178.662,603.048,178.465,602.605,178.438z"
		/>
	<g>
		<path style="fill:#0068B5;" d="M495.334,201.884c-0.882-0.124-1.641-0.621-2.412-1.065c-4.325-2.489-8.18-5.639-12.157-8.622
			c-3.062-2.297-5.683-5.149-9.012-7.103c-1.335-0.784-2.729-1.486-3.987-2.38c-2.432-1.727-2.607-2.792-0.911-5.255
			c7.446-10.813,14.926-21.604,22.373-32.416c8.049-11.684,16.031-23.414,24.126-35.066c5.535-7.966,10.916-16.043,16.79-23.769
			c1.434-1.887,1.824-1.996,3.779-0.733c3.496,2.258,6.954,4.578,10.36,6.97c5.67,3.982,11.579,7.625,17.004,11.956
			c0.319,0.254,0.633,0.515,0.94,0.783c1.368,1.194,1.51,1.807,0.568,3.354c-1.187,1.95-2.421,3.873-3.69,5.77
			c-11.522,17.219-22.954,34.499-35.564,50.962c-5.705,7.448-10.85,15.295-16.024,23.117c-2.845,4.301-6.21,8.173-9.73,11.92
			C497.11,201.027,496.397,201.692,495.334,201.884z"/>
		<path style="fill:#0068B5;" d="M454.951,374.124c-8.827-0.102-17.595-0.95-26.336-2.121c-0.483-0.065-0.955-0.216-1.436-0.298
			c-1.818-0.308-2.818-1.337-3.257-3.165c-0.764-3.183-1.159-6.419-1.57-9.65c-0.453-3.558-0.771-7.134-1.112-10.706
			c-0.077-0.807-0.081-1.636,0.013-2.44c0.349-2.977,1.661-4.065,4.642-4.232c9.14-0.512,18.286,0.362,27.418-0.101
			c7.918-0.401,15.842,0.064,23.755-0.378c14.044-0.785,27.901-2.59,41.462-6.579c13.949-4.103,23.944-12.806,31.081-25.218
			c2.297-3.994,3.433-8.265,3.813-12.779c0.179-2.124-0.166-4.249-0.645-6.309c-2.755-11.834-8.783-21.726-18.09-29.515
			c-6.091-5.098-12.783-9.321-20.043-12.609c-2.006-0.908-3.974-1.904-5.929-2.918c-2.124-1.102-2.368-1.973-1.159-4.112
			c3.292-5.826,6.881-11.472,10.409-17.156c0.904-1.456,1.843-2.893,2.682-4.386c0.954-1.698,2.387-2.179,4.147-1.685
			c1.487,0.418,2.942,0.967,4.377,1.544c7.249,2.911,13.712,7.185,20.128,11.562c7.042,4.804,13.467,10.315,19.416,16.405
			c7.341,7.514,13.69,15.762,18.343,25.213c2.703,5.49,5.063,11.133,6.267,17.187c2.85,14.33,0.314,27.622-7.122,40.205
			c-5.101,8.632-12.245,14.969-20.591,20.161c-7.659,4.765-15.895,8.304-24.4,11.255c-12.284,4.262-24.816,7.559-37.667,9.564
			c-5.807,0.906-11.664,1.419-17.536,1.719c-9.863,0.505-19.726,1.03-29.589,1.542C455.932,374.146,455.441,374.124,454.951,374.124
			z"/>
		<path style="fill:#0085DD;" d="M427.473,420.532c-12.053,0.283-23.632-0.717-35.234-0.511c-3.99,0.071-7.989-0.241-11.981-0.447
			c-3.932-0.203-7.81,0.625-11.733,0.531c-3.179-0.076-6.366,0.113-9.537-0.262c-0.969-0.115-1.948-0.18-2.858-0.588
			c-1.846-0.828-2.277-1.926-1.333-3.7c0.573-1.077,1.248-2.106,1.941-3.113c6.674-9.682,11.538-20.286,15.399-31.315
			c4.931-14.087,8.72-28.508,11.325-43.22c0.967-5.463,1.607-4.908,5.593-4.122c10.164,2.002,20.277,4.22,30.305,6.818
			c0.393,0.102,0.78,0.234,1.166,0.363c3.165,1.063,3.402,1.384,3.615,4.647c0.677,10.36,2.596,20.507,5.149,30.557
			c2.763,10.879,6.867,21.249,11.671,31.362c0.84,1.768,1.782,3.486,2.615,5.257c0.589,1.253,1.152,2.531,1.18,3.96
			c0.036,1.872-0.563,2.764-2.343,3.199c-0.943,0.231-1.934,0.367-2.904,0.371C435.344,420.341,431.187,420.745,427.473,420.532z"/>
		<path style="fill:#0069B6;" d="M342.546,283.108c14.508-0.018,28.764,1.988,42.868,5.269c14.69,3.417,29.451,6.511,44.203,9.647
			c10.803,2.296,21.346,5.404,31.059,10.853c3.43,1.924,6.655,4.166,9.493,6.868c3.035,2.891,4.645,6.677,5.384,10.721
			c1.12,6.127-1.544,10.781-6.341,14.343c-4.751,3.528-10.266,4.941-16.063,5.219c-14.79,0.708-29.481-0.435-44.104-2.629
			c-20.18-3.028-40.076-7.423-59.806-12.573c-7.885-2.059-15.686-4.431-23.079-7.959c-4.826-2.302-9.266-5.158-12.977-9.041
			c-3.027-3.168-4.972-6.951-5.144-11.335c-0.233-5.924,2.316-10.569,7.363-13.755c4.348-2.745,9.134-4.26,14.203-4.987
			C333.902,283.133,338.222,283.11,342.546,283.108z"/>
		<path style="fill:#4CC3ED;" d="M487.614,263.147c-1.089-0.034-1.992-0.405-2.868-0.855c-4.949-2.542-9.612-5.539-14.076-8.852
			c-0.196-0.146-0.398-0.286-0.583-0.445c-3.7-3.192-4.019-5.095-1.599-9.32c4.061-7.091,8.735-13.78,13.509-20.393
			c7.549-10.456,14.432-21.369,21.971-31.83c1.19-1.651,2.43-3.269,3.71-4.851c1.648-2.035,2.431-2.18,4.846-0.965
			c1.829,0.92,3.511,2.09,5.124,3.339c3.612,2.797,7.185,5.645,10.768,8.48c0.511,0.404,1.009,0.83,1.474,1.286
			c2.706,2.655,2.925,4.275,1.039,7.591c-3.355,5.9-7.229,11.458-11.299,16.876c-6.427,8.554-12.017,17.684-18.272,26.355
			c-2.819,3.907-5.704,7.752-9.145,11.147C490.901,262.003,489.404,262.929,487.614,263.147z"/>
		<path style="fill:#C2E9FE;" d="M441.801,315.311c-0.031,0.145-0.123,0.88-0.348,1.572c-1.289,3.956-2.818,7.822-4.569,11.594
			c-1.037,2.234-1.841,2.63-4.268,2.156c-10.797-2.109-21.573-4.333-32.389-6.347c-9.053-1.686-18.158-3.085-27.222-4.715
			c-5.852-1.052-11.674-2.276-17.501-3.46c-1.032-0.21-2.064-0.519-3.029-0.935c-1.762-0.76-2.122-1.655-1.48-3.5
			c0.806-2.318,2.075-4.425,3.164-6.611c1.272-2.552,2.587-5.089,4.01-7.559c1.199-2.08,1.607-2.162,3.998-1.769
			c12.635,2.079,25.089,5.032,37.576,7.82c10.415,2.326,20.847,4.568,31.3,6.718c2.951,0.607,5.876,1.342,8.797,2.083
			C441.014,312.653,441.958,313.279,441.801,315.311z"/>
		<path style="fill:#002759;" d="M465.704,366.857c-9.687,0.078-17.404-7.683-17.483-17.611c-0.069-8.71,6.767-17.247,17.282-17.263
			c11.228-0.017,17.208,8.158,17.567,17.26C483.445,358.76,476.067,366.803,465.704,366.857z"/>
		<path style="fill:#002958;" d="M570.765,99.104c0.096,0.779-0.219,1.533-0.67,2.225c-1.737,2.664-3.489,5.318-5.252,7.965
			c-0.269,0.404-0.602,0.774-0.947,1.118c-1.468,1.468-2.315,1.687-4.119,0.68c-2.275-1.27-4.475-2.678-6.673-4.081
			c-7.976-5.09-15.791-10.417-23.428-16.002c-3.71-2.714-3.707-2.931-1.3-6.843c1.412-2.294,2.886-4.541,4.533-6.674
			c2.016-2.611,3.076-2.828,6.005-1.136c8.192,4.734,16.264,9.657,24.018,15.091c2.003,1.404,4.103,2.673,5.935,4.305
			C569.844,96.622,570.794,97.548,570.765,99.104z"/>
		<path style="fill:#2280FD;" d="M430.124,299.48c-2.864,0.097-5.051-1.078-7.281-2.062c-1.708-0.754-1.701-0.815-2.842,0.725
			c-2.236,3.018-4.465,6.042-7.149,8.691c-1.105,1.091-2.222,2.16-3.575,2.958c-1.6,0.944-3.223,1.118-4.889,0.231
			c-3.752-1.998-7.424-4.128-10.644-6.938c-0.609-0.531-1.142-1.171-1.62-1.826c-1.431-1.958-1.657-3.931-0.351-6.143
			c2.535-4.292,5.299-8.431,8.068-12.57c1.744-2.606,1.747-2.654-0.613-4.58c-1.87-1.526-3.202-3.483-4.492-5.46
			c-1.103-1.691-1.094-3.523-0.278-5.385c1.152-2.627,2.684-5.041,4.116-7.51c5.741-9.899,12.306-19.263,18.799-28.668
			c7.56-10.951,15.086-21.923,22.58-32.92c4.595-6.742,9.242-13.463,14.856-19.435c0.223-0.238,0.395-0.527,0.63-0.75
			c3.045-2.88,4.486-3.561,8.454-1.481c5.579,2.925,10.868,6.323,16.053,9.877c6.195,4.247,12.697,8.043,18.616,12.693
			c1.285,1.009,2.562,2.009,3.536,3.357c1.333,1.845,1.466,3.759,0.457,5.758c-0.404,0.799-0.885,1.562-1.37,2.316
			c-8.796,13.662-18.298,26.847-27.327,40.35c-8.084,12.089-16.71,23.763-25.878,35.046c-3.042,3.744-6.183,7.389-9.921,10.466
			C435.347,298.454,432.69,299.482,430.124,299.48z"/>
		<path style="fill:#002759;" d="M505.259,202.305c10.43,0.014,22.037,8.675,21.446,21.721c-0.61,13.461-10.783,21.189-21.599,21.26
			c-11.877,0.079-21.5-9.349-21.557-21.41C483.492,211.889,493.27,202.289,505.259,202.305z"/>
		<path style="fill:#0069B6;" d="M399.915,436.35c-10.18-0.501-23.659-0.319-37.136-0.406c-3.414-0.022-6.853-0.127-10.249-0.67
			c-1.953-0.312-3.812-0.835-5.467-1.985c-1.361-0.945-2.168-2.23-2.385-3.834c-0.496-3.653-0.497-7.314,0.063-10.963
			c0.519-3.38,2.526-5.666,6.036-6.017c4.064-0.406,8.138-0.52,12.207-0.684c7.594-0.307,15.183,0.241,22.765,0.523
			c9.15,0.34,18.294,0.063,27.439,0.218c6.284,0.107,12.549,0.542,18.806,1.069c4.873,0.411,9.735,0.956,14.603,1.439
			c1.638,0.162,3.215,0.56,4.722,1.217c1.29,0.562,2.031,1.512,2.281,2.947c0.286,1.638,0.126,3.237,0.015,4.869
			c-0.165,2.442-0.172,4.896-0.664,7.304c-0.669,3.278-2.085,4.626-5.4,5.078c-1.29,0.176-2.608,0.295-3.906,0.25
			C430.167,436.245,416.685,436.528,399.915,436.35z"/>
		<path style="fill:#002958;" d="M555.935,299.548c-0.072,5.068-1.208,9.882-3.474,14.407c-1.712,3.419-4.156,6.256-7.265,8.481
			c-10.33,7.392-21.492,12.965-33.97,15.782c-9.726,2.196-19.511,3.991-29.424,5.081c-0.243,0.027-0.484,0.089-0.728,0.098
			c-1.652,0.063-2.754-0.663-2.971-1.946c-0.227-1.34,0.738-2.495,2.47-2.75c3.635-0.535,7.293-0.922,10.921-1.502
			c9.922-1.587,19.811-3.363,29.298-6.799c7.81-2.829,15.01-6.884,21.618-11.859c7.486-5.636,9.689-13.722,8.394-22.503
			c-2.516-17.063-10.921-30.724-25.139-40.691c-4.902-3.436-10.154-6.232-15.555-8.774c-0.59-0.278-1.204-0.527-1.744-0.884
			c-1.162-0.769-1.52-1.855-1.051-2.937c0.474-1.094,1.52-1.568,2.852-1.254c0.393,0.092,0.774,0.257,1.144,0.425
			c7.163,3.247,14.035,6.995,20.224,11.891c14.027,11.097,21.901,25.655,24.262,43.291
			C555.904,297.911,555.891,298.733,555.935,299.548z"/>
		<path style="fill:#0068B5;" d="M476.554,350.086c-0.029,5.894-4.761,10.659-10.539,10.615
			c-5.923-0.046-10.957-5.098-10.918-10.957c0.039-5.875,4.767-10.6,10.583-10.576C471.673,339.193,476.583,344.124,476.554,350.086
			z M471.76,350.127c0.007-3.522-2.685-6.227-6.157-6.187c-3.24,0.037-5.713,2.529-5.714,5.757c0,3.466,2.758,6.22,6.199,6.187
			C469.344,355.854,471.754,353.407,471.76,350.127z"/>
		<path style="fill:#002958;" d="M431.575,302.457c-1.209-0.075-2.104-0.824-3.043-1.455c-7.174-4.822-14.165-9.902-21.146-14.994
			c-4.874-3.555-9.704-7.169-14.542-10.772c-0.583-0.435-1.164-0.911-1.62-1.47c-0.689-0.845-0.701-1.802-0.077-2.716
			c0.617-0.905,1.746-1.252,2.82-0.78c0.585,0.257,1.1,0.688,1.616,1.08c11.883,9.024,23.97,17.765,36.287,26.188
			c0.535,0.366,1.099,0.717,1.549,1.174c0.704,0.715,0.755,1.622,0.349,2.498C433.352,302.112,432.572,302.504,431.575,302.457z"/>
		<path style="fill:#98CC33;" d="M426.261,323.98c-5.38,0.018-8.122-2.184-9.098-6.539c-0.435-1.941-0.529-3.883,0.049-5.806
			c0.575-1.914,1.97-2.807,3.654-2.402c1.549,0.372,2.291,1.663,1.974,3.639c-0.183,1.143-0.286,2.268,0.016,3.391
			c0.398,1.478,0.899,1.841,2.427,1.87c1.43,0.027,2.706-0.516,3.983-1.06c0.748-0.318,1.477-0.721,2.256-0.919
			c1.482-0.375,2.714,0.195,3.315,1.397c0.643,1.286,0.325,2.834-1.019,3.646C431.22,322.768,428.44,323.917,426.261,323.98z"/>
		<path style="fill:#0068B5;" d="M468.12,253.005c-0.036,1.271-0.497,2.153-1.653,2.553c-1.027,0.355-2.04-0.052-2.675-1.131
			c-0.285-0.484-0.448-1.043-0.65-1.574c-2.368-6.235-4.737-12.469-7.094-18.708c-0.229-0.605-0.466-1.229-0.546-1.863
			c-0.137-1.082,0.341-1.943,1.356-2.347c0.986-0.392,1.943-0.217,2.645,0.652c0.302,0.374,0.562,0.808,0.732,1.256
			c2.539,6.691,5.062,13.389,7.581,20.087C467.958,252.308,468.038,252.71,468.12,253.005z"/>
		<path style="fill:#98CC33;" d="M387.376,316.875c-4.488-0.016-7.062-2.723-6.827-7.011c0.148-2.702,1.239-5.063,2.856-7.171
			c1.003-1.308,2.44-1.569,3.694-0.863c1.335,0.752,1.81,2.241,1.13,3.82c-0.515,1.194-1.402,2.212-1.714,3.508
			c-0.367,1.523-0.009,1.966,1.542,1.859c0.976-0.067,1.949-0.286,2.921-0.274c1.507,0.018,2.537,0.928,2.773,2.268
			c0.245,1.394-0.368,2.529-1.755,3.14C390.461,316.828,388.789,316.668,387.376,316.875z"/>
		<path style="fill:#002958;" d="M431.232,421.589c-0.272,4.069-0.546,8.137-0.814,12.206c-0.048,0.733-0.067,1.462-0.339,2.164
			c-0.399,1.031-1.155,1.576-2.234,1.595c-1.031,0.018-1.99-0.836-2.184-1.971c-0.108-0.634-0.084-1.304-0.03-1.951
			c0.525-6.26,0.958-12.524,1.036-18.808c0.004-0.325,0.023-0.656,0.092-0.972c0.318-1.458,1.273-2.262,2.526-2.152
			c1.149,0.101,2.028,0.931,2.104,2.309c0.095,1.706,0.004,3.424-0.033,5.136c-0.017,0.815-0.095,1.628-0.145,2.443
			C431.219,421.588,431.225,421.588,431.232,421.589z"/>
		<path style="fill:#002958;" d="M375.977,423.338c0,3.017,0.001,6.033-0.001,9.05c-0.001,0.734,0.002,1.466-0.317,2.158
			c-0.42,0.91-1.119,1.372-2.12,1.361c-1.005-0.011-1.686-0.505-2.086-1.417c-0.306-0.698-0.262-1.436-0.26-2.167
			c0.011-5.952,0.02-11.904,0.053-17.856c0.004-0.726,0.053-1.478,0.245-2.172c0.334-1.201,1.236-1.83,2.341-1.728
			c1.217,0.112,1.925,0.845,2.123,2.015c0.108,0.636,0.077,1.299,0.079,1.95c0.007,2.935,0.003,5.87,0.003,8.806
			C376.017,423.338,375.997,423.338,375.977,423.338z"/>
		<path style="fill:#0068B5;" d="M443.583,252.1c0.831,0.092,1.539,0.475,1.989,1.216c0.337,0.555,0.604,1.155,0.864,1.752
			c2.443,5.607,4.878,11.217,7.314,16.826c0.912,2.101,0.719,3.383-0.607,4.057c-1.408,0.715-2.75,0.025-3.703-2.13
			c-2.639-5.965-5.156-11.985-7.838-17.931C440.713,253.92,441.826,252.155,443.583,252.1z"/>
		<path style="fill:#0068B5;" d="M461.757,262.017c-0.025,1.254-0.499,2.068-1.517,2.467c-0.93,0.364-1.766,0.104-2.457-0.602
			c-0.527-0.538-0.783-1.236-1.066-1.913c-2.361-5.645-4.72-11.291-7.076-16.937c-0.157-0.376-0.331-0.753-0.426-1.146
			c-0.316-1.315,0.162-2.341,1.285-2.842c1.014-0.452,2.048-0.186,2.796,0.836c0.379,0.518,0.637,1.136,0.888,1.735
			c2.339,5.566,4.668,11.135,6.989,16.709C461.421,260.923,461.597,261.551,461.757,262.017z"/>
		<path style="fill:#0068B5;" d="M464.234,221.966c-0.034-1.302,0.39-2.112,1.447-2.512c1.062-0.402,1.967-0.073,2.598,0.786
			c0.424,0.577,0.708,1.283,0.945,1.968c1.951,5.624,3.883,11.254,5.804,16.889c0.235,0.689,0.529,1.375,0.485,2.135
			c-0.067,1.161-0.799,2.106-1.845,2.297c-1.09,0.2-1.921-0.229-2.468-1.174c-0.202-0.349-0.342-0.74-0.474-1.125
			c-2.061-6.016-4.118-12.034-6.168-18.055C464.402,222.716,464.305,222.237,464.234,221.966z"/>
		<path style="fill:#002958;" d="M448.066,417.25c-0.313,5.526-0.628,11.051-0.938,16.577c-0.041,0.734-0.092,1.46-0.421,2.139
			c-0.529,1.093-1.396,1.566-2.583,1.37c-1.111-0.184-1.699-0.935-1.818-2.005c-0.071-0.64,0.003-1.3,0.041-1.949
			c0.307-5.363,0.608-10.726,0.945-16.086c0.066-1.05,0.177-2.122,0.462-3.128c0.325-1.146,1.34-1.69,2.463-1.521
			c1.103,0.167,1.776,0.839,1.893,1.926c0.095,0.884,0.019,1.785,0.019,2.679C448.108,417.251,448.087,417.25,448.066,417.25z"/>
		<path style="fill:#002958;" d="M395.126,424.204c0,2.772,0.006,5.545-0.005,8.317c-0.002,0.486,0.013,0.999-0.132,1.451
			c-0.328,1.019-1.063,1.668-2.155,1.692c-0.976,0.021-1.694-0.501-2.117-1.395c-0.285-0.602-0.382-1.242-0.387-1.902
			c-0.044-6.035-0.096-12.069-0.573-18.09c-0.032-0.401-0.025-0.824,0.064-1.214c0.219-0.959,0.833-1.594,1.809-1.763
			c1.091-0.188,1.936,0.275,2.421,1.248c0.441,0.886,0.537,1.87,0.575,2.856c0.112,2.933,0.235,5.866,0.354,8.8
			C395.029,424.205,395.077,424.204,395.126,424.204z"/>
		<path style="fill:#0068B5;" d="M446.6,284.2c-0.007,1.169-0.413,1.95-1.304,2.365c-0.983,0.457-1.952,0.31-2.665-0.534
			c-0.411-0.486-0.711-1.09-0.96-1.684c-2.202-5.263-4.386-10.535-6.564-15.808c-0.248-0.601-0.503-1.216-0.622-1.85
			c-0.22-1.173,0.336-2.152,1.361-2.591c1.011-0.433,2.072-0.135,2.794,0.854c0.284,0.388,0.48,0.85,0.666,1.299
			c2.25,5.42,4.495,10.842,6.729,16.269C446.282,283.118,446.45,283.748,446.6,284.2z"/>
		<path style="fill:#98CC33;" d="M403.421,314.093c4.677,0.182,8.034,2.396,10.027,6.628c0.879,1.868,0.439,3.468-1.046,4.249
			c-1.486,0.781-2.921,0.226-4.068-1.576c-2.233-3.507-3.721-4.056-7.757-2.862c-0.157,0.046-0.313,0.093-0.472,0.133
			c-1.817,0.46-3.3-0.188-3.833-1.674c-0.536-1.492,0.167-2.917,1.928-3.72C399.847,314.521,401.573,314.039,403.421,314.093z"/>
		<path style="fill:#002958;" d="M409.288,423.736c0-2.94-0.025-5.879,0.008-8.818c0.026-2.276,0.806-3.336,2.348-3.336
			c1.54,0,2.358,1.059,2.34,3.342c-0.047,5.963-0.162,11.926-0.26,17.889c-0.007,0.405-0.045,0.823-0.156,1.209
			c-0.377,1.31-1.305,1.986-2.515,1.851c-1.242-0.139-1.904-0.928-2.04-2.094c-0.113-0.968-0.062-1.957-0.056-2.936
			c0.01-1.797,0.041-3.594,0.06-5.392c0.006-0.572,0.001-1.143,0.001-1.715C409.109,423.736,409.198,423.736,409.288,423.736z"/>
		<path style="fill:#002958;" d="M354.032,423.232c0-2.768-0.022-5.537,0.007-8.304c0.023-2.236,0.801-3.369,2.275-3.444
			c1.582-0.08,2.47,1.115,2.497,3.464c0.066,5.618-0.056,11.235-0.275,16.849c-0.019,0.486-0.035,0.99-0.174,1.449
			c-0.317,1.05-1.075,1.625-2.174,1.623c-1.102-0.003-1.875-0.586-2.156-1.641c-0.165-0.617-0.154-1.29-0.157-1.938
			c-0.016-2.686-0.007-5.373-0.007-8.059C353.922,423.232,353.977,423.232,354.032,423.232z"/>
		<path style="fill:#98CC33;" d="M374.341,310.319c-0.039,2.009-0.656,3.852-1.741,5.516c-0.902,1.382-2.529,1.804-3.835,1.117
			c-1.226-0.645-1.753-2.076-1.273-3.574c0.173-0.54,0.466-1.04,0.66-1.574c0.643-1.773,0.314-2.341-1.596-2.661
			c-0.879-0.147-1.792-0.111-2.661-0.294c-1.248-0.264-1.953-1.115-2.096-2.386c-0.142-1.261,0.573-2.416,1.764-2.918
			C368.042,301.653,374.262,305.562,374.341,310.319z"/>
		<path style="fill:#0068B5;" d="M480.34,227.411c0.021,1.533-0.766,2.645-1.939,2.866c-1.221,0.23-2.33-0.467-2.688-1.915
			c-1.328-5.373-3.015-10.641-4.536-15.957c-0.112-0.39-0.205-0.795-0.227-1.198c-0.064-1.163,0.329-2.083,1.512-2.491
			c1.142-0.393,2.229,0.075,2.848,1.239c0.189,0.354,0.299,0.755,0.412,1.144c1.419,4.839,2.836,9.679,4.239,14.523
			C480.142,226.245,480.232,226.894,480.34,227.411z"/>
		<path style="fill:#2280FD;" d="M559.837,88.279c-0.068,0.781-0.45,1.409-0.868,2.013c-2.965,4.288-5.933,8.574-8.909,12.854
			c-0.231,0.332-0.497,0.654-0.803,0.916c-0.971,0.833-1.972,0.904-2.902,0.251c-0.917-0.645-1.21-1.666-0.764-2.812
			c0.146-0.374,0.363-0.729,0.593-1.062c3.011-4.355,6.029-8.705,9.047-13.055c0.326-0.469,0.679-0.907,1.199-1.195
			c0.789-0.437,1.559-0.432,2.31,0.053C559.481,86.718,559.841,87.415,559.837,88.279z"/>
		<path style="fill:#2280FD;" d="M553.93,108.01c0.042-0.772,0.472-1.369,0.885-1.974c2.838-4.162,5.901-8.17,8.429-12.544
			c0.868-1.502,2.333-1.888,3.489-1.157c1.088,0.688,1.378,1.951,0.56,3.457c-0.968,1.782-2.05,3.508-3.181,5.193
			c-1.721,2.564-3.519,5.077-5.304,7.598c-0.373,0.527-0.768,1.069-1.262,1.472c-0.747,0.61-1.614,0.716-2.501,0.211
			C554.161,109.762,553.859,108.98,553.93,108.01z"/>
		<path style="fill:#2280FD;" d="M537.753,95.725c0.031-0.779,0.462-1.38,0.886-1.98c2.682-3.801,5.362-7.603,8.062-11.391
			c0.326-0.458,0.711-0.924,1.175-1.222c0.904-0.58,1.875-0.563,2.721,0.155c0.751,0.639,0.996,1.481,0.675,2.43
			c-0.129,0.381-0.31,0.761-0.541,1.09c-2.815,4.007-5.638,8.008-8.476,11.998c-0.279,0.392-0.627,0.771-1.024,1.035
			c-0.82,0.546-1.711,0.53-2.539,0.005C537.93,97.36,537.675,96.604,537.753,95.725z"/>
		<path style="fill:#0068B5;" d="M437.813,291.22c-0.087,1.24-0.525,2.054-1.594,2.405c-1.056,0.348-2.117-0.044-2.724-1.058
			c-0.289-0.484-0.457-1.042-0.665-1.572c-1.404-3.562-2.81-7.124-4.201-10.692c-0.235-0.604-0.485-1.224-0.579-1.859
			c-0.16-1.081,0.299-1.946,1.305-2.383c0.988-0.429,1.947-0.25,2.657,0.599c0.359,0.428,0.648,0.944,0.855,1.465
			c1.53,3.863,3.037,7.735,4.533,11.611C437.604,290.264,437.706,290.828,437.813,291.22z"/>
		<path style="fill:#2280FD;" d="M542.319,78.034c0.033,0.806-0.246,1.392-0.612,1.941c-2.439,3.662-4.88,7.323-7.334,10.975
			c-0.224,0.333-0.509,0.648-0.828,0.889c-0.873,0.658-1.828,0.696-2.736,0.107c-0.846-0.549-1.038-1.408-0.888-2.367
			c0.105-0.669,0.491-1.202,0.85-1.742c2.21-3.325,4.421-6.65,6.651-9.961c0.361-0.535,0.764-1.068,1.245-1.491
			c0.746-0.657,1.655-0.695,2.512-0.241C541.95,76.552,542.366,77.243,542.319,78.034z"/>
		<path style="fill:#0068B5;" d="M476.357,198.749c-0.021-1.264,0.469-2.13,1.612-2.53c0.987-0.346,2.063,0.106,2.673,1.168
			c0.319,0.556,0.519,1.189,0.719,1.805c0.727,2.241,1.432,4.489,2.144,6.735c0.123,0.387,0.29,0.766,0.357,1.162
			c0.245,1.448-0.347,2.532-1.558,2.926c-1.08,0.351-2.126-0.155-2.796-1.365c-0.117-0.213-0.217-0.439-0.292-0.67
			c-0.899-2.782-1.796-5.566-2.683-8.352C476.437,199.32,476.405,198.991,476.357,198.749z"/>
		<path style="fill:#0068B5;" d="M491.271,202.137c0.033,2.03-0.599,2.995-1.709,3.28c-1.205,0.309-2.299-0.173-2.732-1.437
			c-0.844-2.464-1.62-4.955-2.313-7.466c-0.362-1.313,0.227-2.433,1.252-2.869c1.069-0.456,2.469-0.123,2.922,1.029
			C489.732,197.314,490.559,200.04,491.271,202.137z"/>
	</g>
	<g>
		<g>
			<path style="fill:#F48B63;" d="M282.195,315.135c-0.856,1.1-1.179,2.512-1.663,3.806c-4.25,11.371-8.628,22.693-13.196,33.939
				c-2.234,5.5-2.075,4.145-6.505,3.263c-1.644-0.327-3.258-0.893-4.822-1.509c-1.677-0.66-2.408-0.338-1.733-3.125
				c1.93-7.968,3.381-16.032,4.809-24.101c1.47-8.31,3.227-16.557,5.337-24.73c3.002-11.626,8.193-22.16,15.899-31.371
				c3.422-4.091,2.867-4.09,6.15-0.076c6.315,7.719,12.586,15.482,18.302,23.668c0.276,0.396,0.489,0.846,0.81,1.199
				c1.092,1.202,1.005,2.249,0.073,3.622c-3.958,5.829-4.019,12.374-3.279,19.053c0.726,6.558,3.381,12.539,5.506,18.674
				c2.157,6.225,4.5,12.384,6.731,18.584c1.191,3.311,1.043,3.605-2.232,5.06c-1.911,0.849-3.829,1.689-5.86,2.213
				c-2.364,0.61-2.773,0.437-3.824-1.659c-6.238-12.441-12.46-24.89-17.501-37.885c-0.991-2.555-1.858-5.138-2.412-7.823
				C282.723,315.628,282.737,315.283,282.195,315.135z"/>
			<path style="fill:#367294;" d="M255.341,350.104c-0.008,0.161-0.012,0.321-0.023,0.482c-0.184,2.646-0.182,2.635,2.507,3.229
				c2.351,0.519,4.709,1.017,7.04,1.616c2.036,0.522,2.199,0.965,1.438,2.882c-1.1,2.769-3.085,4.43-6.04,4.905
				c-0.238,0.038-0.477,0.094-0.716,0.096c-5.241,0.054-9.844,1.971-14.214,4.703c-1.557,0.974-3.287,1.681-4.966,2.447
				c-0.954,0.435-1.982,0.719-3.048,0.485c-1.155-0.254-1.573-1.134-0.985-2.172c0.765-1.35,1.955-2.344,3.116-3.328
				c1.285-1.09,2.634-2.108,3.987-3.114c3.491-2.596,5.563-6.157,7.01-10.16c0.463-1.282,0.929-2.566,1.473-3.815
				c0.352-0.807,0.824-1.764,1.847-1.643c1.138,0.134,1.369,1.219,1.534,2.185c0.067,0.39,0.011,0.802,0.011,1.203
				C255.322,350.104,255.331,350.104,255.341,350.104z"/>
			<path style="fill:#367294;" d="M311.227,304.022c0.096,0.799-0.289,1.175-0.763,1.529c-1.615,1.206-3.362,2.192-5.137,3.136
				c-1.163,0.618-2.022,0.324-2.987-0.586c-3.4-3.205-6.341-6.833-9.571-10.193c-2.114-2.199-4.07-4.55-6.184-6.75
				c-3.865-4.022-6.952-8.626-10.065-13.214c-0.27-0.398-0.453-0.854-0.725-1.25c-0.756-1.098-0.569-1.999,0.295-3.012
				c1.893-2.22,3.977-4.198,6.467-5.724c1.476-0.905,1.645-0.87,2.813,0.43c3.437,3.827,6.787,7.726,9.699,11.977
				c3.045,4.446,6.674,8.438,9.891,12.748c2.263,3.032,4.307,6.206,5.815,9.695C310.963,303.249,311.11,303.707,311.227,304.022z"/>
			<path style="fill:#367294;" d="M318.637,362.747c0.061,2.085-0.715,3.434-1.931,4.591c-2.558,2.435-5.247,4.74-7.465,7.512
				c-1.755,2.195-3.485,4.41-5.265,6.584c-0.924,1.129-2.006,2.098-3.439,2.553c-1.38,0.438-2.214-0.185-2.12-1.641
				c0.079-1.217,0.586-2.324,1.134-3.399c0.73-1.433,1.454-2.874,1.866-4.432c0.673-2.547,0.644-5.071-0.389-7.549
				c-0.555-1.332-1.144-2.667-1.298-4.122c-0.084-0.793-0.196-1.697,0.639-2.172c0.939-0.534,1.681,0.023,2.329,0.683
				c0.225,0.228,0.468,0.46,0.618,0.736c0.553,1.013,1.284,0.932,2.234,0.563c2.62-1.02,5.211-2.088,7.702-3.4
				c3.083-1.625,4.69-0.811,5.292,2.649C318.612,362.295,318.632,362.698,318.637,362.747z"/>
			<path style="fill:#CE6342;" d="M277.078,300.719c0.16-3.652,0.594-7.32,1.644-10.897c0.113-0.386,0.201-0.783,0.351-1.155
				c0.364-0.902,0.958-1.52,2.023-1.301c0.907,0.186,1.41,1.134,1.115,2.326c-0.464,1.874-0.95,3.737-1.298,5.641
				c-0.976,5.336-0.183,10.591,0.611,15.851c0.292,1.931,0.011,2.763-1.057,2.977c-1.071,0.215-1.892-0.545-2.191-2.346
				C277.67,308.162,277.141,304.495,277.078,300.719z"/>
		</g>
		<path style="fill:#F48B63;" d="M254.173,222.78c-1.596-1.532-2.983-2.815-4.31-4.157c-0.765-0.774-2.293-1.798-1.665-2.612
			c0.888-1.151,1.836,0.558,2.793,0.936c1.385,0.547,2.543,1.602,4.514,2.08c-1.434-1.457-2.54-2.571-3.633-3.698
			c-0.333-0.344-0.666-0.699-0.929-1.096c-0.169-0.255-0.261-0.634,0.076-0.848c0.17-0.108,0.485-0.148,0.658-0.062
			c0.788,0.391,1.555,0.827,2.319,1.265c1.359,0.78,2.71,1.572,4.496,2.611c-1.281-1.938-2.864-2.826-3.933-4.207
			c-0.343-0.443-0.758-0.837-1.059-1.305c-0.154-0.239-0.261-0.637,0.101-0.848c0.186-0.108,0.49-0.191,0.664-0.113
			c0.655,0.294,1.299,0.626,1.91,1.004c2.383,1.471,4.686,3.078,7.346,4.399c0.214-0.861-0.238-1.432-0.528-2.003
			c-0.55-1.079-0.986-2.197-1.306-3.359c-0.126-0.46-0.234-1.006,0.245-1.329c0.556-0.375,1.089-0.121,1.527,0.281
			c0.353,0.324,0.68,0.683,0.979,1.059c1.901,2.393,3.621,4.906,5.2,7.526c1.131,1.877,3.001,3.042,4.686,4.365
			c0.44,0.345,0.943,0.613,1.434,0.887c0.656,0.367,0.901,0.81,0.567,1.573c-1.384,3.165-2.769,6.331-4.068,9.532
			c-0.486,1.196-1.185,1.094-2.057,0.617c-0.703-0.384-1.412-0.773-2.06-1.24c-3.555-2.556-7.79-3.764-11.573-5.869
			c-2.829-1.575-5.303-3.603-7.607-5.85c-0.428-0.417-1.279-0.838-0.874-1.527c0.444-0.755,1.143-0.096,1.693,0.13
			c0.737,0.303,1.486,0.564,2.141,1.08C252.438,222.412,253.025,222.877,254.173,222.78z"/>
		<g>
			<path style="fill:#98CC33;" d="M265.586,175.415c1.569,2.137,3.48,3.497,5.172,5.075c0.577,0.538,1.181,0.247,1.792-0.017
				c1.699-0.733,3.411-1.435,5.118-2.15c0.52-0.217,1.025-0.478,1.56-0.646c1.284-0.403,2.216-0.077,2.683,0.889
				c0.497,1.027,0.088,2.075-1.202,2.745c-1.068,0.555-2.204,0.98-3.307,1.469c-0.807,0.357-1.609,0.724-2.572,1.158
				c1.32,1.901,2.88,3.527,3.982,5.473c0.461,0.813,1.27,0.561,1.959,0.5c1.682-0.15,3.351-0.501,5.05-0.384
				c0.991,0.069,1.657,0.61,1.837,1.61c0.162,0.9-0.237,1.598-1.024,1.995c-0.414,0.209-0.923,0.25-1.397,0.317
				c-1.348,0.188-2.7,0.35-4.126,0.532c0.304,1.82,0.619,3.536,0.868,5.261c0.128,0.885,0.687,1.18,1.449,1.364
				c1.408,0.339,2.809,0.705,4.204,1.092c0.618,0.172,1.244,0.378,1.655,0.929c0.477,0.64,0.535,1.347,0.191,2.049
				c-0.405,0.827-1.194,1.157-2.016,1.025c-1.346-0.217-2.692-0.526-3.984-0.959c-1.171-0.393-1.605-0.002-1.797,1.11
				c-0.122,0.706-0.4,1.39-0.65,2.069c-1.069,2.9-1.073,2.897,1.262,5.117c0.466,0.443,0.955,0.87,1.37,1.359
				c0.692,0.816,0.904,1.71,0.165,2.625c-0.662,0.821-1.809,0.968-2.817,0.21c-0.96-0.722-1.844-1.563-2.671-2.438
				c-0.734-0.777-1.333-0.96-2.238-0.21c-0.796,0.659-1.707,1.264-2.669,1.617c-1.388,0.509-1.164,1.227-0.618,2.203
				c0.589,1.053,1.123,2.138,1.635,3.23c0.356,0.759,0.44,1.558-0.048,2.308c-0.796,1.224-2.465,1.109-3.36-0.346
				c-0.841-1.367-1.479-2.857-2.242-4.273c-0.289-0.537-0.394-1.333-1.211-1.34c-0.958-0.008-1.925,0.039-2.87,0.183
				c-0.474,0.072-0.413,0.646-0.436,1.02c-0.094,1.526-0.145,3.055-0.214,4.583c-0.048,1.057-0.421,1.892-1.56,2.146
				c-1.251,0.278-2.267-0.533-2.35-2.064c-0.087-1.604-0.039-3.222,0.068-4.827c0.07-1.057-0.224-1.666-1.304-1.915
				c-1.416-0.327-2.775-0.861-4.022-1.602c-0.868-0.515-1.29-0.218-1.698,0.557c-0.674,1.281-1.36,2.562-2.127,3.789
				c-0.76,1.215-1.866,1.574-2.84,1.051c-0.949-0.509-1.243-1.668-0.604-2.963c0.747-1.514,1.584-2.987,2.436-4.446
				c0.385-0.659,0.315-1.101-0.185-1.698c-2.738-3.269-2.72-3.285-5.845-0.402c-0.947,0.873-1.851,1.798-2.846,2.613
				c-1.036,0.848-2.083,0.844-2.835,0.13c-0.812-0.771-0.824-1.995,0.164-3c1.579-1.607,3.212-3.169,4.916-4.642
				c0.938-0.811,1.001-1.464,0.272-2.429c-0.626-0.829-1.079-1.789-1.603-2.694c-0.88-1.519-0.884-1.531-2.581-0.755
				c-1.171,0.535-2.307,1.148-3.492,1.648c-1.393,0.587-2.436,0.307-2.942-0.686c-0.507-0.994-0.137-2.105,1.121-2.807
				c1.402-0.783,2.87-1.457,4.339-2.11c0.915-0.406,1.203-0.963,0.774-1.88c-0.136-0.29-0.222-0.604-0.336-0.904
				c-0.513-1.344-0.382-3.273-1.478-3.958c-1.297-0.81-3.079,0.199-4.661,0.302c-0.962,0.063-1.918,0.232-2.88,0.273
				c-1.109,0.047-1.85-0.511-2.085-1.607c-0.215-1.004,0.479-1.985,1.719-2.229c1.735-0.341,3.505-0.505,5.251-0.795
				c1.922-0.319,1.908-0.343,1.694-2.197c-0.166-1.439-0.4-2.88-0.427-4.324c-0.024-1.311-0.64-1.636-1.8-1.576
				c-1.043,0.054-2.095,0.024-3.139-0.04c-0.553-0.034-1.131-0.14-1.638-0.354c-0.824-0.347-1.226-1.051-1.102-1.943
				c0.141-1.01,0.848-1.597,1.799-1.678c1.279-0.109,2.572-0.024,3.859-0.049c1.8-0.034,1.77-0.048,1.961-1.87
				c0.244-2.32,0.539-4.634,0.817-6.95c0.203-1.694,0.208-1.701-1.401-2.08c-1.174-0.277-2.36-0.505-3.529-0.804
				c-1.08-0.276-1.633-1.023-1.548-2.133c0.08-1.035,1.051-1.807,2.274-1.682c1.275,0.131,2.539,0.421,3.789,0.722
				c1.118,0.269,1.892,0.146,2.076-1.196c0.076-0.55,0.318-1.078,0.496-1.612c1.024-3.076,1.024-3.071-2.118-4.221
				c-1.057-0.387-2.137-0.734-3.147-1.222c-1.355-0.656-1.796-1.651-1.346-2.695c0.446-1.035,1.445-1.413,2.882-0.938
				c1.603,0.529,3.168,1.171,4.752,1.759c0.226,0.084,0.484,0.102,0.689,0.219c1.076,0.614,1.581-0.148,1.776-0.92
				c0.318-1.257,2.555-2.039,1.067-3.708c-1.337-1.5-2.831-2.86-4.243-4.295c-0.451-0.458-0.94-0.907-1.268-1.448
				c-0.495-0.818-0.529-1.721,0.185-2.451c0.801-0.818,1.767-0.791,2.62-0.123c0.756,0.592,1.397,1.33,2.083,2.01
				c1.252,1.241,2.499,2.487,3.784,3.767c1.449-1.007,2.506-2.268,3.943-3.01c0.877-0.452,0.625-1.191,0.52-1.899
				c-0.305-2.07-0.618-4.139-0.913-6.21c-0.067-0.474-0.158-0.966-0.096-1.432c0.128-0.962,0.63-1.658,1.682-1.754
				c1.012-0.092,1.786,0.345,2.026,1.327c0.344,1.402,0.553,2.838,0.797,4.263c0.122,0.714,0.231,1.434,0.276,2.155
				c0.088,1.426,0.667,2.14,2.241,2.07c1.213-0.054,2.362,0.51,3.389,1.152c0.839,0.525,1.312,0.256,1.76-0.479
				c0.67-1.1,1.334-2.206,2.068-3.263c0.869-1.251,1.881-1.599,2.84-1.08c1.08,0.585,1.326,1.729,0.526,3.143
				c-0.831,1.469-1.747,2.896-2.696,4.293c-0.547,0.805-0.78,1.54-0.249,2.443c0.24,0.408,0.338,0.902,0.482,1.363
				c0.285,0.91,0.042,2.204,0.796,2.687c0.952,0.611,2.144-0.192,3.237-0.332c1.194-0.153,2.359-0.519,3.55-0.702
				c1.64-0.252,2.635,0.273,2.906,1.424c0.273,1.158-0.404,2.061-2.038,2.445c-2.192,0.515-4.401,0.97-6.621,1.346
				c-1.078,0.183-1.702,0.548-1.94,1.726c-0.396,1.962-0.997,3.882-1.535,5.909c1.301,0.42,2.476,0.053,3.643-0.03
				c1.445-0.102,2.885-0.324,4.329-0.352c1.452-0.028,2.321,0.748,2.338,1.866c0.015,1.007-0.732,1.832-2.028,2.008
				c-2.471,0.336-4.958,0.559-7.432,0.877c-1.957,0.251-1.935,0.283-2.021,2.175c-0.073,1.626,0.157,3.209,0.558,4.778
				c0.207,0.811,0.658,1.041,1.421,0.679c1.453-0.69,2.91-1.375,4.368-2.054c0.509-0.237,1.011-0.514,1.547-0.663
				c1.031-0.286,1.947-0.085,2.454,0.96c0.516,1.062,0.08,1.95-0.82,2.485c-1.309,0.779-2.711,1.403-4.076,2.088
				C267.277,174.589,266.562,174.935,265.586,175.415z"/>
			<g>
				<path style="fill:#5E8400;" d="M261.411,179.422c2.329-0.058,4.344,1.93,4.327,4.271c-0.016,2.235-1.916,4.169-4.146,4.219
					c-2.217,0.05-4.205-1.806-4.325-4.039C257.144,181.55,259.07,179.48,261.411,179.422z"/>
				<path style="fill:#5E8400;" d="M253.12,197.611c0.069,2.363-1.871,4.366-4.225,4.363c-2.256-0.003-4.156-1.861-4.219-4.126
					c-0.066-2.361,1.874-4.367,4.223-4.366C251.156,193.484,253.053,195.34,253.12,197.611z"/>
				<path style="fill:#5E8400;" d="M249.829,180.123c-0.055,2.35-2.078,4.215-4.459,4.111c-2.266-0.1-4.092-2.03-4.044-4.277
					c0.049-2.36,2.047-4.201,4.451-4.102C248.051,175.948,249.882,177.876,249.829,180.123z"/>
				<path style="fill:#5E8400;" d="M266.865,205.493c-2.365-0.01-4.314-2.013-4.228-4.347c0.083-2.268,1.977-4.075,4.262-4.067
					c2.279,0.008,4.172,1.841,4.235,4.101C271.199,203.51,269.226,205.503,266.865,205.493z"/>
				<path style="fill:#5E8400;" d="M254.786,148.182c0.002,2.288-1.798,4.126-4.094,4.182c-2.413,0.059-4.349-1.802-4.348-4.178
					c0.001-2.283,1.811-4.127,4.104-4.182C252.858,143.946,254.784,145.802,254.786,148.182z"/>
			</g>
		</g>
		<g>
			<path style="fill:#E0DFDD;" d="M300.523,255.033c-6.778-1.679-12.88-4.057-18.542-7.516c-4.269-2.608-8.182-5.705-12.132-8.749
				c-2.142-1.651-2.243-2.498-0.933-4.906c2-3.675,4.167-7.253,6.48-10.74c1.092-1.646,1.128-1.605,2.801-0.501
				c7.472,4.93,15.3,9.179,23.732,12.247c0.729,0.265,1.447,0.772,2.635,0.382c-0.544-2.514-0.317-5.14-0.445-7.763
				c-0.399-8.187,0.572-16.212,3.127-24.009c1.505-4.592,4.834-7.535,9.197-9.298c3.28-1.325,6.662-2.082,10.299-2.039
				c5.812,0.069,11.571,0.3,17.245,1.671c1.724,0.417,3.411,0.928,5.061,1.566c5.481,2.119,8.566,6.113,9.104,11.951
				c0.611,6.635,1.064,13.285,1.63,19.925c0.757,8.875,1.54,17.747,2.595,26.595c0.878,7.362,0.975,14.738-0.321,22.093
				c-1.347,7.643-5.302,13.448-11.752,17.746c-5.323,3.547-11.11,6.144-16.883,8.784c-4.531,2.072-9.2,3.809-13.943,5.342
				c-0.459,0.148-0.914,0.306-1.377,0.441c-3.776,1.099-4.165,1.036-6.505-2.132c-7.169-9.705-14.725-19.111-22.089-28.666
				c-2.059-2.672-4.395-5.129-6.572-7.712c-1.437-1.706-1.413-1.763,0.278-3.242c1.399-1.224,2.978-2.183,4.575-3.123
				c3.119-1.835,6.229-3.684,9.319-5.568C298.253,257.115,299.443,256.439,300.523,255.033z"/>
			<path style="fill:#7D7A79;" d="M329.338,277.019c-7.101-0.037-10.975-5.575-8.776-11.626c0.914-2.516,2.229-4.822,3.916-6.894
				c1.331-1.635,2.329-1.702,3.814-0.267c2.785,2.69,5.872,5.013,8.883,7.429c1.073,0.861,2.082,1.774,2.815,2.955
				c0.68,1.096,0.638,2.17-0.279,3.083C336.654,274.742,333.069,276.724,329.338,277.019z M326.552,261.39
				c-1.63,2.105-2.816,4.335-3.306,6.896c-0.299,1.561,0.284,2.861,1.482,3.857c1.651,1.374,3.547,1.843,5.647,1.314
				c1.897-0.477,3.621-1.332,5.17-2.522c1.261-0.968,1.316-1.212,0.147-2.177C332.72,266.305,329.694,263.916,326.552,261.39z"/>
			<path style="fill:#7D7A79;" d="M322.228,241.174c-0.961,7.32-3.836,13.739-9.091,19.008c-2.685,2.692-5.814,4.827-8.945,6.954
				c-3.589,2.438-7.362,4.641-10.252,7.985c-0.304,0.352-0.737,0.645-1.168,0.822c-0.628,0.257-1.264,0.186-1.759-0.376
				c-0.487-0.553-0.544-1.181-0.182-1.783c0.286-0.476,0.689-0.885,1.056-1.31c2.129-2.466,4.795-4.276,7.453-6.097
				c2.921-2,5.909-3.901,8.694-6.098c5.967-4.707,9.467-10.835,10.685-18.306c0.104-0.635,0.195-1.276,0.356-1.897
				c0.228-0.878,0.787-1.404,1.746-1.311c0.993,0.096,1.316,0.802,1.404,1.675C322.248,240.676,322.228,240.919,322.228,241.174z"/>
			<path style="fill:#7D7A79;" d="M327.239,210.745c-0.474,3.052-0.918,6.14-1.454,9.213c-0.167,0.956-0.831,1.603-1.896,1.394
				c-1.039-0.204-1.448-1.028-1.316-1.986c0.428-3.089,0.903-6.173,1.427-9.247c0.167-0.981,0.844-1.569,1.901-1.38
				C326.967,208.93,327.245,209.745,327.239,210.745z"/>
		</g>
		<g>
			<path style="fill:#F48B63;" d="M277.464,211.85c0.052-1.043-0.677-1.239-1.097-1.654c-1.258-1.242-2.577-2.422-3.797-3.699
				c-0.444-0.465-1.277-1.085-0.619-1.789c0.503-0.538,1.162,0.089,1.703,0.409c1.242,0.735,2.475,1.49,3.749,2.166
				c0.388,0.206,0.764,0.631,1.522,0.338c-0.987-0.997-1.912-1.927-2.832-2.862c-0.451-0.458-0.925-0.898-1.328-1.396
				c-0.243-0.3-0.443-0.702-0.098-1.078c0.269-0.294,0.616-0.16,0.887-0.02c0.712,0.368,1.402,0.778,2.095,1.181
				c1.361,0.792,2.719,1.59,4.22,2.174c-0.806-0.839-1.614-1.676-2.419-2.517c-0.665-0.694-1.346-1.375-1.983-2.094
				c-0.313-0.353-0.632-0.8-0.21-1.261c0.32-0.349,0.759-0.198,1.114-0.011c0.568,0.298,1.113,0.642,1.661,0.978
				c2.123,1.3,4.243,2.606,6.366,3.907c0.263,0.161,0.519,0.392,0.98,0.068c-0.576-1.41-1.193-2.854-1.751-4.32
				c-0.272-0.714-0.831-1.615,0.185-2.101c0.892-0.426,1.447,0.39,1.971,0.996c1.685,1.951,3.263,4.01,4.492,6.255
				c1.602,2.926,4.01,4.927,6.727,6.641c0.943,0.595,1.414,1.046,0.846,2.264c-1.356,2.911-2.51,5.916-3.815,8.852
				c-0.697,1.567-0.838,1.575-2.324,0.789c-0.637-0.337-1.265-0.704-1.849-1.125c-3.55-2.564-7.786-3.772-11.57-5.873
				c-3.046-1.691-5.684-3.894-8.131-6.345c-0.277-0.278-0.662-0.602-0.424-1.024c0.313-0.554,0.823-0.339,1.254-0.115
				c0.851,0.442,1.802,0.653,2.584,1.276C276.094,211.277,276.77,211.498,277.464,211.85z"/>
			<path style="fill:#A9A7A5;" d="M331.626,241.21c-5.154,0.264-9.954-1.37-14.71-3.138c-7.876-2.928-15.181-6.986-22.268-11.451
				c-2.004-1.262-1.971-1.337-1.102-3.474c1.58-3.882,3.637-7.529,5.535-11.255c0.584-1.146,1.366-1.514,2.537-1.166
				c0.77,0.229,1.559,0.437,2.278,0.782c3.189,1.531,6.4,3.023,9.518,4.69c3.49,1.865,7.1,3.404,10.887,4.522
				c3.6,1.062,6.138-0.022,7.776-3.41c1.546-3.197,2.439-6.637,3.334-10.057c1.224-4.675,2.849-9.216,4.385-13.789
				c0.297-0.883,0.541-1.423,1.666-0.925c5.517,2.44,10.995,4.958,16.24,7.949c1.802,1.028,1.885,1.125,1.44,2.805
				c-1.873,7.062-3.264,14.252-5.633,21.183c-1.152,3.37-2.791,6.493-4.73,9.468c-2.572,3.944-6.214,6.162-10.867,6.821
				C335.836,241.059,333.767,241.325,331.626,241.21z"/>
		</g>
		<g>
			<path style="fill:#F48B63;" d="M326.098,210.429c-0.581-0.605-0.585-1.242-0.648-1.892c-0.517-5.348-1.052-10.694-1.609-16.038
				c-0.099-0.954-0.272-1.909-0.513-2.836c-0.258-0.994-0.41-2.013-1.153-2.865c-0.8-0.917-1.784-0.434-2.662-0.541
				c-3.081-0.376-4.884-2.273-6.022-4.921c-0.92-2.141-1.54-4.38-1.726-6.732c-0.173-2.189-0.268-2.215-2.545-1.895
				c-0.714,0.101-1.432,0.177-2.151,0.227c-0.327,0.023-0.654-0.089-0.802-0.421c-0.152-0.342,0.043-0.618,0.273-0.843
				c0.516-0.505,1.03-1.017,1.578-1.486c2.567-2.192,4.057-4.928,4.282-8.324c0.032-0.479,0.167-0.951,0.225-1.429
				c0.103-0.842,0.536-1.336,1.409-1.33c3.961,0.03,7.767-1.169,11.689-1.455c1.87-0.136,2.074-0.041,2.544,1.695
				c2.503,9.238,5.531,18.314,8.891,27.264c1.246,3.318,1.458,5.82-1.207,8.634c-3.776,3.988-6.091,9.039-8.745,13.815
				C326.95,209.522,326.842,210.133,326.098,210.429z"/>
			<path style="fill:#367294;" d="M337.21,195.056c-1.125,1.763-2.142,3.376-3.177,4.976c-2.093,3.234-4.194,6.464-6.296,9.692
				c-0.263,0.403-0.529,0.809-0.839,1.176c-0.303,0.358-0.606,0.846-1.147,0.752c-0.698-0.12-0.694-0.753-0.777-1.308
				c-0.794-5.303-1.745-10.584-2.214-15.934c-0.082-0.938-0.104-1.814,1.093-1.464c4.127,1.208,8.396,1.255,12.612,1.744
				C336.612,194.708,336.748,194.825,337.21,195.056z"/>
			<path d="M318.308,148.224c7.017,0.373,14.001,2.661,20.105,7.428c3.441,2.687,6.471,5.823,9.406,9.016
				c5.19,5.645,11.555,9.1,18.891,11.009c4.201,1.093,8.42,2.158,12.488,3.692c8.183,3.085,12.84,8.967,13.324,17.739
				c0.35,6.339-2.457,11.183-8.067,14.271c-5.871,3.232-11.967,3.346-18.176,1.11c-4.616-1.663-8.621-4.339-12.101-7.752
				c-4.093-4.014-8.598-7.508-13.211-10.878c-7.075-5.169-11.362-12.104-13.255-20.609c-0.873-3.925-1.597-7.863-1.837-11.885
				c-0.115-1.931-0.236-2.063-2.182-1.763c-2.332,0.359-4.662,0.194-6.992,0.205c-2.048,0.01-3.943-0.632-5.742-1.607
				c-1.789-0.969-2.823-2.513-2.832-4.454c-0.009-1.927,1.319-3.182,2.98-4.066C313.158,148.588,315.394,148.406,318.308,148.224z"
				/>
			<g>
				<path d="M314.327,164.798c-0.356,0.76-0.028,1.664,0.731,2.02c0.76,0.356,1.664,0.028,2.02-0.731
					c0.356-0.76,0.028-1.664-0.731-2.02C315.587,163.711,314.683,164.038,314.327,164.798z"/>
				<path d="M312.349,162.64c-0.013,0.182,7.48,0.512,7.48,0.512c0.055-0.806-1.575-1.574-3.64-1.716
					C314.123,161.295,312.404,161.834,312.349,162.64z"/>
				<path style="fill:#BF6443;" d="M311.771,175.139c0.055,0.534,0.151,1.087,0.268,1.624c0.211-0.016,0.436-0.037,0.662-0.058
					c2.256-0.264,4.002-1.199,3.892-2.075C316.579,174.522,314.021,174.835,311.771,175.139z"/>
			</g>
		</g>
	</g>
	<g>
		<path style="fill:#CCDEEA;" d="M88.028,145.66c-2.184-0.011-3.485-2.272-2.307-4.187c0.765-1.244,1.776-2.335,2.666-3.502
			c16.282-21.363,32.76-42.571,49.916-63.246c0.781-0.942,1.541-1.916,2.426-2.753c1.205-1.138,2.638-1.183,3.774-0.277
			c1.207,0.963,1.426,2.494,0.444,3.941c-0.639,0.942-1.422,1.786-2.152,2.665c-16.962,20.411-33.237,41.363-49.323,62.465
			c-0.891,1.168-1.788,2.332-2.72,3.468C90.056,145.083,89.193,145.676,88.028,145.66z"/>
		<path style="fill:#CCDEEA;" d="M404.882,183.388c-1.855-0.017-3.16-1.748-2.596-3.549c0.215-0.687,0.626-1.326,1.015-1.944
			c13.001-20.671,26.14-41.254,39.862-61.459c0.548-0.808,1.098-1.643,1.792-2.317c1.097-1.067,2.445-1.113,3.571-0.293
			c1.073,0.78,1.443,2.172,0.851,3.51c-0.261,0.591-0.661,1.124-1.028,1.664c-13.595,19.994-26.605,40.368-39.496,60.819
			c-0.522,0.828-1.052,1.655-1.642,2.434C406.642,183.005,405.861,183.426,404.882,183.388z"/>
		<path style="fill:#CCDEEA;" d="M240.733,244.44c0.013,1.156-0.676,1.977-1.335,2.812c-5.769,7.306-11.305,14.789-16.773,22.319
			c-8.059,11.097-16.007,22.274-24.003,33.417c-0.38,0.53-0.715,1.104-1.158,1.577c-1.048,1.119-2.614,1.299-3.772,0.499
			c-1.06-0.733-1.466-2.152-0.894-3.505c0.282-0.668,0.717-1.281,1.142-1.878c13.059-18.362,26.071-36.757,39.872-54.577
			c0.748-0.966,1.504-1.942,2.375-2.792c0.828-0.809,1.912-0.923,2.962-0.422C240.19,242.387,240.739,243.259,240.733,244.44z"/>
		<path style="fill:#CCDEEA;" d="M590.056,349.824c-0.067,1.123-0.6,1.95-1.111,2.787c-6.539,10.733-12.679,21.7-19.027,32.546
			c-4.576,7.817-9.197,15.608-13.821,23.397c-0.706,1.19-1.455,2.374-2.333,3.439c-1.203,1.459-2.856,1.701-4.11,0.774
			c-1.278-0.944-1.487-2.533-0.447-4.144c6.553-10.153,12.457-20.692,18.529-31.129c5.293-9.099,10.495-18.251,15.955-27.253
			c0.506-0.835,0.911-1.75,1.654-2.414c0.938-0.838,2.01-1.061,3.167-0.487C589.569,347.863,590.016,348.779,590.056,349.824z"/>
		<path style="fill:#CCDEEA;" d="M106.855,146.531c-1.853-0.046-3.068-1.765-2.557-3.6c0.226-0.811,0.739-1.452,1.225-2.101
			c13.165-17.563,26.387-35.081,40.683-51.754c0.319-0.372,0.616-0.767,0.968-1.103c1.409-1.347,2.924-1.479,4.145-0.387
			c1.127,1.007,1.225,2.493,0.236,3.982c-0.27,0.406-0.598,0.774-0.917,1.146c-14.092,16.419-27.105,33.686-40.105,50.965
			c-0.49,0.651-0.962,1.32-1.5,1.93C108.469,146.247,107.729,146.571,106.855,146.531z"/>
		<path style="fill:#CCDEEA;" d="M250.509,253.239c-0.081,1.351-0.832,2.245-1.503,3.16c-3.527,4.808-7.081,9.596-10.606,14.406
			c-7.968,10.874-15.538,22.024-23.08,33.194c-0.777,1.151-1.502,2.346-2.539,3.29c-1.39,1.265-3.019,1.335-4.165,0.22
			c-1.063-1.033-1.08-2.534-0.065-4.002c6.135-8.864,12.187-17.787,18.424-26.578c5.908-8.327,12.01-16.515,18.022-24.768
			c0.389-0.533,0.793-1.036,1.391-1.351c0.949-0.501,1.888-0.484,2.79,0.087C250.076,251.466,250.498,252.31,250.509,253.239z"/>
		<path style="fill:#CCDEEA;" d="M457.055,132.5c0.071,1.14-0.57,2.016-1.152,2.898c-6.116,9.273-11.926,18.739-17.781,28.175
			c-4.865,7.841-9.689,15.707-14.538,23.558c-0.385,0.623-0.761,1.271-1.256,1.8c-0.882,0.943-2.01,1.044-3.158,0.571
			c-1.052-0.434-1.624-1.577-1.519-2.827c0.1-1.195,0.802-2.128,1.397-3.094c5.869-9.524,11.719-19.06,17.643-28.55
			c4.713-7.55,9.52-15.042,14.288-22.558c0.48-0.756,0.906-1.558,1.645-2.113c0.944-0.71,1.966-0.778,2.991-0.254
			C456.563,130.59,457.041,131.417,457.055,132.5z"/>
		<path style="fill:#CCDEEA;" d="M570.825,411.858c-1.872,0.044-3.145-1.533-2.733-3.454c0.312-1.456,1.11-2.712,1.818-3.994
			c6.224-11.285,12.607-22.48,19.222-33.541c2.93-4.9,5.908-9.771,8.88-14.646c0.423-0.693,0.868-1.395,1.421-1.982
			c0.929-0.986,2.266-1.159,3.351-0.562c1.176,0.647,1.725,1.981,1.263,3.366c-0.228,0.683-0.634,1.318-1.018,1.937
			c-9.672,15.602-18.844,31.495-27.739,47.55c-0.672,1.212-1.269,2.464-1.929,3.683C572.82,411.212,572.011,411.836,570.825,411.858
			z"/>
		<path style="fill:#CCDEEA;" d="M564.793,362.376c-0.109,1.138-0.833,2.242-1.493,3.361c-3.523,5.978-7.156,11.894-10.573,17.933
			c-5.065,8.952-9.977,17.99-14.965,26.985c-0.553,0.998-1.099,2.016-1.786,2.92c-1.162,1.531-2.743,1.847-4.065,0.945
			c-1.286-0.877-1.557-2.464-0.617-4.128c6.467-11.441,12.547-23.099,19.239-34.414c2.909-4.919,5.813-9.84,8.727-14.756
			c0.248-0.418,0.508-0.852,0.852-1.186c0.84-0.815,1.86-0.99,2.947-0.585C564.126,359.849,564.824,360.98,564.793,362.376z"/>
		<path style="fill:#CCDEEA;" d="M430.041,116.972c0.008,0.769-0.422,1.461-0.868,2.152c-9.731,15.094-19.457,30.191-29.195,45.281
			c-0.485,0.752-0.995,1.511-1.617,2.145c-1.162,1.185-2.576,1.302-3.759,0.438c-1.157-0.846-1.511-2.319-0.735-3.718
			c0.671-1.21,1.514-2.324,2.265-3.491c8.966-13.936,17.926-27.877,26.902-41.806c0.705-1.094,1.447-2.186,2.318-3.146
			c0.853-0.941,2.041-1.026,3.17-0.524C429.589,114.779,430.078,115.699,430.041,116.972z"/>
		<path style="fill:#CCDEEA;" d="M123.816,148.714c-1.363,0.022-2.757-1.855-2.038-3.72c0.346-0.895,0.951-1.71,1.533-2.49
			c10.304-13.809,20.968-27.339,31.736-40.787c0.461-0.575,0.928-1.146,1.595-1.497c1.053-0.553,2.356-0.411,3.189,0.373
			c0.925,0.872,1.23,1.945,0.709,3.115c-0.293,0.66-0.75,1.263-1.206,1.833c-10.92,13.641-21.751,27.35-32.15,41.394
			C126.473,147.896,125.69,148.666,123.816,148.714z"/>
		<path style="fill:#CCDEEA;" d="M513.027,419.723c-1.778,0.065-3.058-1.379-2.817-3.182c0.111-0.833,0.547-1.528,0.97-2.226
			c8.801-14.507,17.603-29.015,26.407-43.52c0.211-0.347,0.423-0.705,0.697-1.001c0.985-1.066,2.392-1.285,3.552-0.588
			c1.057,0.635,1.619,1.931,1.232,3.178c-0.239,0.768-0.638,1.503-1.058,2.195c-8.713,14.37-17.442,28.73-26.157,43.099
			C515.188,418.771,514.444,419.693,513.027,419.723z"/>
		<path style="fill:#CCDEEA;" d="M102.837,108.299c-2.539-0.027-3.825-2.307-2.677-4.223c0.539-0.9,1.336-1.643,1.994-2.475
			c9.831-12.433,19.958-24.623,30.112-36.792c0.366-0.439,0.701-0.913,1.116-1.3c1.087-1.011,2.488-1.145,3.58-0.396
			c1.222,0.838,1.595,2.262,0.87,3.674c-0.332,0.646-0.789,1.24-1.258,1.801c-10.257,12.295-20.474,24.624-30.418,37.176
			C105.202,106.967,104.253,108.271,102.837,108.299z"/>
		<path style="fill:#CCDEEA;" d="M496.075,422.049c-1.761-0.011-3.065-1.575-2.687-3.301c0.119-0.544,0.41-1.062,0.682-1.558
			c7.389-13.435,14.813-26.85,23.048-39.795c0.394-0.619,0.756-1.265,1.206-1.841c1.103-1.413,2.549-1.758,3.856-0.974
			c1.294,0.776,1.688,2.287,0.976,3.855c-0.201,0.443-0.466,0.86-0.728,1.272c-8.052,12.673-15.386,25.763-22.598,38.924
			c-0.509,0.929-0.978,1.891-1.763,2.631C497.516,421.783,496.858,422.087,496.075,422.049z"/>
		<path style="fill:#CCDEEA;" d="M579.898,418.171c-0.013-0.412,0.342-1.042,0.73-1.678c7.943-13.01,15.876-26.027,23.82-39.036
			c0.508-0.833,1.018-1.685,1.659-2.412c1.015-1.152,2.346-1.34,3.523-0.648c1.232,0.724,1.702,2.154,1.116,3.626
			c-0.239,0.599-0.614,1.148-0.958,1.702c-7.778,12.538-15.493,25.115-23.02,37.806c-0.622,1.049-1.199,2.146-2.121,2.977
			c-0.925,0.833-1.992,1.094-3.165,0.559C580.403,420.576,579.91,419.7,579.898,418.171z"/>
		<path style="fill:#CCDEEA;" d="M410.164,113.758c2.015-0.037,3.423,1.741,2.898,3.504c-0.181,0.608-0.547,1.187-0.929,1.705
			c-7.754,10.521-14.932,21.441-22.351,32.194c-0.834,1.209-1.656,2.436-2.59,3.565c-1.316,1.591-2.964,1.834-4.278,0.758
			c-1.224-1.003-1.379-2.555-0.246-4.167c8.166-11.626,15.894-23.557,24.307-35.011c0.673-0.917,1.293-1.909,2.438-2.337
			C409.713,113.859,410.033,113.794,410.164,113.758z"/>
		<path style="fill:#CCDEEA;" d="M501.543,380.613c0,1.123-0.587,2.032-1.128,2.935c-4.073,6.792-8.171,13.569-12.252,20.356
			c-3.114,5.177-6.211,10.365-9.33,15.539c-0.376,0.624-0.761,1.282-1.285,1.77c-0.83,0.772-1.839,1.017-2.94,0.49
			c-1.167-0.559-1.68-1.495-1.63-2.762c0.044-1.116,0.672-2.002,1.216-2.904c5.058-8.391,10.137-16.77,15.193-25.162
			c2.107-3.496,4.165-7.022,6.263-10.524c0.374-0.625,0.76-1.273,1.271-1.779c0.836-0.827,1.913-0.94,2.958-0.473
			C500.922,378.565,501.493,379.441,501.543,380.613z"/>
		<path style="fill:#CCDEEA;" d="M447.372,173.635c-2.175-0.052-3.406-2.298-2.225-4.235c0.889-1.458,2.002-2.777,2.959-4.197
			c6.428-9.54,12.838-19.093,19.264-28.635c0.683-1.014,1.368-2.042,2.178-2.951c1.175-1.32,2.705-1.475,3.928-0.544
			c1.229,0.935,1.473,2.397,0.541,3.934c-0.718,1.184-1.573,2.284-2.347,3.434c-6.376,9.477-12.742,18.962-19.128,28.433
			c-0.819,1.215-1.707,2.389-2.613,3.541C449.295,173.221,448.43,173.658,447.372,173.635z"/>
		<path style="fill:#CCDEEA;" d="M612.699,392.205c1.796-0.049,3.207,1.542,2.863,3.247c-0.141,0.7-0.488,1.385-0.857,2.008
			c-6.727,11.36-14.018,22.379-20.475,33.902c-0.276,0.492-0.62,0.968-1.017,1.367c-1.103,1.108-2.378,1.282-3.544,0.552
			c-1.253-0.785-1.654-2.156-1.034-3.633c0.156-0.373,0.395-0.711,0.594-1.066c6.48-11.604,13.818-22.69,20.591-34.117
			C610.509,393.3,611.309,392.315,612.699,392.205z"/>
		<path style="fill:#CCDEEA;" d="M228.809,302.774c-0.002-1.053,0.613-1.834,1.153-2.648c5.183-7.818,10.784-15.339,16.29-22.928
			c2.058-2.837,4.044-5.727,6.058-8.596c0.469-0.667,0.898-1.37,1.593-1.835c1.059-0.708,2.216-0.708,3.19,0.052
			c0.99,0.772,1.379,1.786,1.029,3.031c-0.248,0.884-0.813,1.593-1.309,2.337c-4.709,7.057-9.965,13.721-14.832,20.665
			c-2.386,3.405-4.745,6.829-7.113,10.246c-0.464,0.669-0.871,1.387-1.537,1.887c-0.923,0.693-1.933,0.852-2.989,0.352
			C229.274,304.83,228.805,303.934,228.809,302.774z"/>
		<path style="fill:#CCDEEA;" d="M229.626,234.112c-0.056,1.735-0.828,2.71-1.588,3.662c-3.355,4.205-6.737,8.389-10.107,12.582
			c-4.596,5.718-9.187,11.44-13.785,17.156c-0.407,0.506-0.791,1.054-1.286,1.463c-0.977,0.807-2.086,0.87-3.188,0.243
			c-1.102-0.627-1.555-1.863-1.216-3.172c0.276-1.065,1.009-1.854,1.668-2.675c6.232-7.749,12.483-15.483,18.714-23.234
			c1.787-2.223,3.538-4.475,5.277-6.736c0.61-0.793,1.224-1.519,2.295-1.67C228.201,231.479,229.656,232.741,229.626,234.112z"/>
		<path style="fill:#CCDEEA;" d="M138.656,150.954c-1.553-0.013-2.412-0.526-2.925-1.586c-0.569-1.177-0.322-2.275,0.533-3.161
			c2.162-2.239,3.928-4.793,5.88-7.198c6.375-7.855,12.734-15.722,19.104-23.58c0.307-0.378,0.619-0.774,1.003-1.063
			c1.007-0.76,2.094-0.863,3.194-0.183c1.065,0.658,1.526,1.926,1.163,3.208c-0.251,0.884-0.83,1.586-1.392,2.283
			c-7.682,9.525-15.366,19.049-23.064,28.561c-0.561,0.693-1.215,1.32-1.878,1.921C139.723,150.655,139.056,150.973,138.656,150.954
			z"/>
		<path style="fill:#CCDEEA;" d="M172.186,132.523c0.02,0.738-0.386,1.431-0.915,2.074c-5.643,6.86-11.283,13.723-16.934,20.576
			c-0.517,0.628-1.086,1.226-1.836,1.589c-1.186,0.575-2.546,0.346-3.361-0.581c-0.85-0.966-0.881-2.063-0.387-3.194
			c0.127-0.291,0.357-0.544,0.563-0.795c5.646-6.857,11.294-13.713,16.948-20.564c0.57-0.69,1.15-1.386,1.994-1.769
			C170.175,128.99,172.213,130.306,172.186,132.523z"/>
		<path style="fill:#CCDEEA;" d="M463.367,406.231c-0.062-1.259,0.33-1.974,0.778-2.662c4.044-6.217,8.093-12.431,12.143-18.644
			c0.177-0.272,0.37-0.54,0.589-0.779c1.21-1.324,2.649-1.557,3.91-0.646c1.18,0.853,1.477,2.216,0.774,3.707
			c-0.207,0.439-0.487,0.847-0.753,1.256c-3.825,5.874-7.65,11.747-11.487,17.613c-0.399,0.611-0.804,1.245-1.327,1.741
			c-0.84,0.798-1.889,0.938-2.958,0.495C463.955,407.863,463.423,406.994,463.367,406.231z"/>
		<path style="fill:#CCDEEA;" d="M460.98,89.885c-2.451-0.071-4.882-0.303-7.299-0.75c-4.85-0.897-8.75-3.471-12.21-6.828
			c-2.175-2.111-3.987-4.531-5.837-6.922c-3.802-4.914-7.831-9.611-12.584-13.671c-9.34-7.977-20.068-10.81-32.148-9.106
			c-5.659,0.798-11.341,1.441-17.082,0.801c-6.534-0.728-12.581-2.674-17.846-6.76c-2.582-2.004-5.147-4.02-7.547-6.243
			c-1.378-1.276-2.775-2.533-4.206-3.749c-7.872-6.691-16.873-8.486-26.815-6.123c-0.952,0.226-1.882,0.548-2.837,0.756
			c-2.366,0.515-3.982-0.299-4.483-2.211c-0.456-1.74,0.543-3.382,2.664-4.049c3.197-1.005,6.462-1.801,9.818-1.976
			c9.33-0.487,17.796,1.875,25.045,7.943c3.067,2.567,6.097,5.186,9.032,7.902c8.018,7.42,17.621,9.043,28.035,7.864
			c3.649-0.413,7.295-0.966,10.957-1.141c11.7-0.56,21.978,3.16,30.999,10.572c5.533,4.546,10.135,9.936,14.47,15.58
			c2.192,2.854,4.406,5.667,7.285,7.896c2.186,1.692,4.615,2.684,7.326,3.172c6.119,1.101,12.033,0.33,17.814-1.777
			c2.222-0.81,4.405-1.728,6.608-2.588c0.681-0.266,1.347-0.593,2.111-0.574c1.351,0.033,2.376,0.632,2.931,1.854
			c0.551,1.211,0.407,2.416-0.49,3.428c-0.369,0.416-0.854,0.792-1.361,1.013C476.192,87.31,468.96,90.071,460.98,89.885z"/>
		<path style="fill:#CCDEEA;" d="M172.189,342.066c1.109-0.097,1.999,0.641,2.914,1.336c6.244,4.741,12.493,9.476,18.739,14.216
			c16.199,12.294,32.76,24.098,49.073,36.238c13.171,9.801,26.071,19.955,39.049,30.006c6.522,5.051,13.107,10.018,19.652,15.038
			c0.905,0.694,1.819,1.406,2.592,2.236c1.177,1.263,1.192,3.023,0.183,4.245c-1.039,1.257-2.649,1.519-4.2,0.65
			c-0.424-0.237-0.803-0.558-1.192-0.854c-20.968-16.006-41.619-32.428-62.799-48.154c-16.064-11.927-32.324-23.589-48.271-35.676
			c-5.532-4.193-11.06-8.393-16.588-12.591c-0.65-0.493-1.318-0.97-1.777-1.667c-0.686-1.04-0.784-2.162-0.256-3.263
			C169.84,342.719,170.768,342.094,172.189,342.066z"/>
		<path style="fill:#CCDEEA;" d="M279.21,457.149c-0.027,2.011-2.11,3.576-4.095,2.922c-0.678-0.223-1.311-0.661-1.891-1.098
			c-16.38-12.32-32.834-24.537-49.459-36.526c-19.206-13.851-38.395-27.726-57.733-41.394c-0.597-0.422-1.214-0.851-1.701-1.387
			c-1.1-1.209-1.168-2.802-0.272-4.045c0.816-1.131,2.307-1.633,3.716-1.077c0.819,0.323,1.564,0.868,2.294,1.382
			c19.362,13.633,38.523,27.548,57.753,41.366c15.386,11.056,30.508,22.469,45.766,33.697c1.446,1.064,2.832,2.211,4.233,3.334
			C278.696,455.024,279.163,455.948,279.21,457.149z"/>
		<path style="fill:#CCDEEA;" d="M366.046,87.399c-6.662,0.091-12.51-1.977-17.516-6.424c-1.957-1.739-3.843-3.539-5.644-5.437
			c-1.967-2.073-3.95-4.134-5.98-6.145c-6.905-6.842-15.173-8.865-24.556-6.858c-3.199,0.684-6.306,1.67-9.339,2.896
			c-0.678,0.274-1.371,0.56-2.084,0.692c-1.65,0.305-3.044-0.425-3.643-1.803c-0.642-1.478-0.118-3.083,1.331-4.047
			c0.203-0.135,0.417-0.265,0.642-0.356c6.306-2.561,12.712-4.722,19.638-4.654c8.547,0.084,15.975,2.978,22.108,8.986
			c2.333,2.285,4.59,4.65,6.841,7.017c1.579,1.659,3.26,3.201,4.948,4.746c5.083,4.657,11.162,5.474,17.626,4.566
			c4.44-0.624,8.742-2.138,13.239-2.403c13.256-0.782,24.229,3.46,31.877,14.802c0.505,0.749,0.953,1.534,1.126,2.429
			c0.304,1.571-0.436,2.985-1.852,3.624c-1.335,0.602-2.735,0.286-3.749-0.909c-0.366-0.431-0.619-0.957-0.929-1.437
			c-5.698-8.819-14.17-12.13-24.259-12.085c-4.441,0.02-8.696,1.358-13.012,2.221C370.599,87.268,368.326,87.404,366.046,87.399z"/>
		<path style="fill:#CCDEEA;" d="M233.116,54.155c12.351,0.095,24.446,2.571,35.571,8.958c0.994,0.57,2.01,1.102,2.787,1.963
			c1.282,1.422,1.39,3.127,0.312,4.448c-1.052,1.288-2.822,1.547-4.41,0.503c-18-11.836-49.257-14.037-72.344,2.685
			c-4.894,3.545-9.668,7.236-14.362,11.036c-0.443,0.359-0.844,0.781-1.319,1.088c-1.363,0.88-2.986,0.744-4.058-0.288
			c-1.075-1.035-1.297-2.675-0.441-4.041c0.383-0.61,0.898-1.175,1.459-1.629c6.41-5.182,12.792-10.405,19.885-14.66
			C207.451,57.464,219.662,54.172,233.116,54.155z"/>
		<path style="fill:#CCDEEA;" d="M247.459,461.16c0.031,2.279-2.32,3.825-4.507,2.926c-0.517-0.212-0.98-0.582-1.432-0.926
			c-22.277-16.952-45.351-32.81-67.862-49.44c-0.719-0.532-1.463-1.059-2.074-1.703c-1.374-1.448-1.471-3.343-0.334-4.641
			c1.17-1.336,2.959-1.429,4.613-0.219c7.443,5.44,14.847,10.936,22.332,16.319c14.708,10.576,29.483,21.056,43.957,31.953
			c1.238,0.932,2.47,1.875,3.689,2.833C246.777,458.998,247.382,459.936,247.459,461.16z"/>
		<path style="fill:#CCDEEA;" d="M253.294,373.526c0.86,0.009,1.571,0.378,2.222,0.905c10.472,8.495,21.483,16.283,32.144,24.53
			c10.404,8.049,20.738,16.186,31.102,24.286c0.257,0.201,0.522,0.399,0.747,0.633c1.242,1.291,1.405,2.9,0.445,4.225
			c-0.947,1.306-2.576,1.699-4.159,0.921c-1.403-0.69-2.552-1.759-3.774-2.712c-10.434-8.143-20.818-16.35-31.302-24.427
			c-9.125-7.03-18.361-13.914-27.546-20.865c-1.043-0.789-2.105-1.57-2.705-2.786C249.373,376.017,250.887,373.503,253.294,373.526z
			"/>
		<path style="fill:#CCDEEA;" d="M363.952,123.705c-1.702,0.145-3.579,0.248-5.441,0.475c-2.79,0.341-5.555,0.113-8.289-0.371
			c-5.108-0.904-9.263-3.472-12.557-7.47c-1.561-1.894-2.946-3.909-4.257-5.98c-1.573-2.485-3.292-4.859-5.182-7.12
			c-2.587-3.095-5.866-4.56-9.865-4.556c-3.537,0.003-6.977,0.63-10.387,1.503c-1.42,0.364-2.83,0.817-4.319,0.807
			c-1.885-0.013-3.23-1.12-3.451-2.807c-0.201-1.531,0.759-3.104,2.46-3.485c5.243-1.174,10.422-2.707,15.895-2.586
			c5.512,0.123,10.179,1.997,13.924,6.095c2.377,2.602,4.424,5.446,6.302,8.416c1.223,1.933,2.505,3.819,3.96,5.589
			c2.87,3.491,6.579,5.246,11.065,5.426c2.37,0.095,4.735,0.052,7.087-0.286c2.531-0.364,5.051-0.257,7.556,0.198
			c2.041,0.371,3.23,1.716,3.114,3.447c-0.123,1.848-1.569,3.018-3.78,2.972C366.565,123.949,365.346,123.807,363.952,123.705z"/>
		<path style="fill:#CCDEEA;" d="M233.181,33.316c5.96,0.142,11.915,0.35,17.735,1.843c0.71,0.182,1.437,0.354,2.097,0.658
			c1.827,0.842,2.575,2.527,1.945,4.209c-0.586,1.564-2.183,2.426-4.002,1.912c-2.524-0.713-5.075-1.21-7.678-1.481
			c-19.918-2.076-38.505,1.611-55.363,12.782c-1.701,1.127-3.387,2.278-5.112,3.367c-1.098,0.693-2.274,0.876-3.482,0.205
			c-1.597-0.888-2.142-2.853-1.208-4.434c0.338-0.571,0.831-1.001,1.372-1.379c10.738-7.502,22.21-13.389,35.197-15.899
			c2.641-0.51,5.307-0.972,7.984-1.19C226.161,33.623,229.66,33.263,233.181,33.316z"/>
		<path style="fill:#CCDEEA;" d="M458.702,448.928c10.771-0.279,21.543-0.573,32.318-0.229c0.732,0.023,1.478,0.016,2.19,0.159
			c1.643,0.328,2.658,1.51,2.704,3.021c0.047,1.51-0.898,2.72-2.498,3.227c-0.797,0.253-1.614,0.225-2.428,0.207
			c-19.266-0.406-38.522,0.375-57.784,0.502c-3.348,0.022-6.688,0.12-10.014,0.585c-2.284,0.32-3.768-0.647-4.064-2.482
			c-0.296-1.835,0.793-3.356,2.894-3.908c1.343-0.353,2.73-0.445,4.121-0.524C436.988,448.868,447.85,449.167,458.702,448.928z"/>
		<path style="fill:#CCDEEA;" d="M469.715,473.451c-6.85,0.202-13.701,0.41-20.552,0.598c-0.893,0.024-1.811,0.054-2.677-0.119
			c-1.465-0.293-2.417-1.524-2.479-2.954c-0.066-1.532,0.892-2.845,2.443-3.238c0.545-0.138,1.131-0.138,1.7-0.157
			c4.81-0.161,9.62-0.379,14.432-0.453c9.218-0.141,18.432-0.572,27.654-0.441c0.975,0.014,1.955-0.058,2.902,0.304
			c1.558,0.596,2.404,1.846,2.243,3.383c-0.151,1.449-1.111,2.469-2.669,2.777c-0.475,0.094-0.972,0.113-1.458,0.114
			c-7.179,0.007-14.359,0.005-21.538,0.005C469.716,473.33,469.716,473.391,469.715,473.451z"/>
		<path style="fill:#CCDEEA;" d="M193.467,328.225c1.14,0.01,1.99,0.642,2.832,1.302c8.852,6.947,17.703,13.895,26.564,20.83
			c1.154,0.903,2.35,1.754,3.551,2.594c0.61,0.427,1.16,0.893,1.545,1.537c0.687,1.151,0.744,2.32,0.022,3.464
			c-0.728,1.155-1.825,1.551-3.156,1.418c-1.114-0.112-1.975-0.723-2.813-1.379c-9.886-7.742-19.771-15.486-29.652-23.235
			c-0.64-0.502-1.288-1.004-1.71-1.728c-0.629-1.078-0.654-2.173-0.034-3.249C191.243,328.695,192.227,328.207,193.467,328.225z"/>
		<path style="fill:#CCDEEA;" d="M83.172,182.856c-0.078,2.394-2.71,3.838-4.833,2.609c-0.551-0.319-1.019-0.813-1.463-1.284
			c-7.225-7.669-14.471-15.317-21.916-22.775c-0.402-0.403-0.822-0.808-1.133-1.278c-0.888-1.339-0.746-2.98,0.293-4.059
			c1.038-1.078,2.666-1.288,4.043-0.443c0.549,0.337,1.034,0.798,1.496,1.255c7.426,7.362,14.578,14.988,21.758,22.586
			C82.323,180.426,83.162,181.429,83.172,182.856z"/>
		<path style="fill:#CCDEEA;" d="M664.425,67.905c0.05,0.7-0.295,1.441-0.66,2.171c-3.609,7.205-7.221,14.409-10.837,21.61
			c-0.146,0.29-0.317,0.571-0.506,0.834c-1.225,1.71-3.129,2.225-4.668,1.272c-1.493-0.924-1.905-2.62-0.962-4.512
			c3.707-7.429,7.449-14.84,11.18-22.256c0.331-0.659,0.715-1.284,1.32-1.733c1.082-0.803,2.252-0.925,3.443-0.312
			C663.839,65.549,664.397,66.502,664.425,67.905z"/>
		<path style="fill:#CCDEEA;" d="M695.608,99.686c-0.047,1.338-0.735,2.299-1.791,3.045c-2.535,1.791-5.054,3.605-7.606,5.371
			c-3.693,2.556-7.409,5.081-11.119,7.613c-0.403,0.275-0.811,0.567-1.259,0.748c-1.378,0.555-2.9,0.152-3.766-0.941
			c-0.974-1.231-0.989-2.791,0.099-4.043c0.581-0.669,1.305-1.24,2.037-1.749c5.835-4.055,11.682-8.093,17.542-12.112
			c0.597-0.41,1.271-0.786,1.964-0.962C693.623,96.171,695.565,97.726,695.608,99.686z"/>
		<path style="fill:#CCDEEA;" d="M43.829,201.39c0.587-0.039,1.324,0.317,2.042,0.713c6.29,3.466,12.672,6.754,19.109,9.938
			c0.146,0.072,0.297,0.138,0.438,0.22c2.062,1.206,2.736,2.958,1.797,4.667c-0.906,1.65-2.629,2.152-4.67,1.171
			c-6.768-3.251-13.414-6.741-19.99-10.365c-0.574-0.316-1.121-0.679-1.513-1.222c-0.724-1.002-0.928-2.08-0.388-3.227
			C41.229,202.067,42.203,201.432,43.829,201.39z"/>
		<path style="fill:#CCDEEA;" d="M61.632,252.8c0.001,2.175-1.8,3.635-4.067,3.228c-2.807-0.503-5.592-1.138-8.371-1.781
			c-3.176-0.735-6.337-1.54-9.503-2.322c-0.473-0.117-0.957-0.225-1.4-0.419c-1.651-0.72-2.396-2.11-2.038-3.726
			c0.344-1.555,1.708-2.573,3.478-2.43c1.048,0.085,2.081,0.385,3.116,0.609c5.099,1.104,10.103,2.616,15.245,3.541
			c0.632,0.114,1.267,0.342,1.838,0.639C61.032,250.714,61.543,251.705,61.632,252.8z"/>
		<path style="fill:#CCDEEA;" d="M687.325,154.097c-1.255-0.045-2.233-0.537-2.84-1.632c-0.66-1.191-0.533-2.353,0.244-3.441
			c0.587-0.822,1.458-1.27,2.341-1.704c4.893-2.403,9.882-4.579,15.02-6.41c0.621-0.221,1.242-0.394,1.899-0.394
			c1.427,0,2.567,0.774,3.025,2.034c0.46,1.262,0.105,2.64-0.928,3.545c-0.56,0.49-1.232,0.777-1.925,1.028
			c-5.126,1.859-10.129,4.003-14.997,6.461C688.571,153.885,687.949,154.033,687.325,154.097z"/>
	</g>
	<g>
		<g>
			<path style="fill:#F48B63;" d="M123.826,184.042c4.857-0.013,4.97-0.052,6.144,3.368c0.902,2.631,2.587,4.456,4.869,5.869
				c0.825,0.511,1.624,1.064,2.438,1.595c0.291,0.19,0.51,0.461,0.448,0.796c-0.065,0.347-0.397,0.514-0.729,0.553
				c-0.97,0.113-1.946,0.298-2.914,0.268c-1.291-0.04-1.527,0.612-1.413,1.686c0.266,2.517,0.285,5.019-0.254,7.521
				c-0.752,3.491-2.532,5.964-6.265,6.543c-1.475,0.229-1.432,1.415-1.507,2.366c-0.166,2.111-0.218,4.239-0.159,6.356
				c0.028,1.002-0.313,1.255-1.216,1.319c-5.628,0.403-11.239,0.372-16.829-0.485c-1.682-0.258-1.714-0.257-1.479-1.985
				c0.263-1.934,0.588-3.86,0.89-5.789c0.848-5.41,0.791-10.88,1.128-16.325c0.221-3.572,0.206-7.159,0.733-10.718
				c0.197-1.326,0.813-1.815,2.029-1.952C114.764,184.458,119.811,184.219,123.826,184.042z"/>
			<path d="M102.033,193.547c-0.034-3.499,0.421-6.276,1.861-8.847c1.264-2.258,3.128-3.699,5.576-4.471
				c2.755-0.869,5.602-1.062,8.453-1.167c3.199-0.117,6.301-0.634,9.356-1.625c2.714-0.88,5.489-1.577,8.405-1.154
				c2.124,0.309,4.103,0.975,4.714,3.257c0.626,2.34-0.591,4.102-2.421,5.455c-2.576,1.905-5.602,2.571-8.683,3.041
				c-2.746,0.419-5.513,0.615-8.291,0.493c-1.12-0.049-1.605,0.289-1.613,1.506c-0.012,1.783-0.049,3.573-0.418,5.345
				c-0.188,0.904-0.616,1.263-1.469,1.27c-0.821,0.007-1.688,0.111-1.946-0.991c-0.074-0.316-0.112-0.655-0.257-0.936
				c-0.437-0.848-1.052-0.946-1.76-0.309c-0.565,0.509-0.814,1.209-1.098,1.884c-0.757,1.803-1.392,3.674-2.495,5.301
				c-0.896,1.322-1.705,3.256-3.452,3.089c-1.559-0.149-2.192-2.029-2.826-3.436C102.48,198.616,101.944,195.83,102.033,193.547z"/>
			<path d="M128.594,193.516c0.361,0.77,0.029,1.688-0.742,2.048c-0.771,0.361-1.688,0.029-2.048-0.742
				c-0.361-0.771-0.029-1.688,0.742-2.049C127.316,192.413,128.233,192.745,128.594,193.516z"/>
			<path d="M131.153,191.079c0.013,0.185-7.588,0.52-7.588,0.52c-0.056-0.818,1.597-1.597,3.692-1.74
				C129.353,189.715,131.097,190.261,131.153,191.079z"/>
			<path style="fill:#BF6443;" d="M133.085,200.594c-0.056,0.541-0.154,1.102-0.272,1.647c-0.214-0.016-0.443-0.037-0.672-0.059
				c-2.289-0.268-4.059-1.216-3.947-2.105C128.207,199.967,130.803,200.285,133.085,200.594z"/>
		</g>
		<g>
			<g>
				<path d="M78.061,452.633c-1.091-0.056-2.252-0.449-3.377-0.921c-6.073-2.546-12.134-5.122-18.203-7.677
					c-4.397-1.851-4.552-2.223-2.648-6.648c0.032-0.075,0.061-0.153,0.104-0.221c0.734-1.149,0.469-2.99,1.823-3.572
					c1.215-0.523,2.454,0.582,3.675,0.952c2.799,0.849,5.625,1.63,8.337,2.756c1.022,0.424,1.968,0.944,2.35,1.992
					c1.585,4.357,4.986,7.143,8.422,9.91c0.253,0.204,0.544,0.364,0.787,0.578c0.624,0.551,1.279,1.185,0.984,2.075
					C79.981,452.862,79,452.592,78.061,452.633z"/>
				<path style="fill:#367294;" d="M101.632,354.405c-0.178,1.07-0.389,2.439-0.635,3.8c-3.704,20.422-9.339,40.326-16.175,59.899
					c-2.554,7.311-5.117,14.629-8.71,21.525c-1.008,1.935-0.987,1.94-3.094,1.137c-5.942-2.265-11.891-4.512-17.827-6.794
					c-2.912-1.119-2.444-0.768-1.544-3.431c5.556-16.45,10.287-33.144,14.829-49.894c2.474-9.124,4.332-18.383,5.778-27.725
					c0.05-0.321,0.155-0.633,0.22-0.952c0.369-1.8,0.364-1.779,2.126-1.544c6.145,0.818,12.313,1.392,18.505,1.725
					c1.708,0.092,3.407,0.351,5.114,0.462C101.214,352.677,101.76,353.048,101.632,354.405z"/>
			</g>
			<g>
				<path style="fill:#E0DFDD;" d="M170.043,267.078c-1.056-0.432-2.092-0.93-3.179-1.26c-1.754-0.532-2.343-1.595-2.269-3.437
					c0.209-5.228-0.361-10.408-1.35-15.545c-1.57-8.154-5.791-14.39-13.528-17.693c-7.792-3.326-15.751-6.26-23.636-9.368
					c-0.614-0.242-1.246-0.542-1.865-0.11c-3.104,2.166-6.642,2.01-10.149,1.854c-1.675-0.074-3.293-0.423-4.849-0.971
					c-0.134-0.046-0.269-0.09-0.402-0.138c-0.488-0.179-0.993-0.32-1.476-0.508c-0.194-0.075-0.374-0.171-0.553-0.269
					c-0.041-0.019-0.084-0.034-0.124-0.053c-0.664-0.312-1.323-0.715-1.855-1.235c-0.616-0.166-1.2,0.079-1.804,0.203
					c-3.354,0.693-6.648,1.579-9.88,2.743c-5.19,1.869-8.682,5.347-10.483,10.531c-0.561,1.615-1.012,3.265-1.312,4.956
					c-1.058,5.961-1.25,11.98-1.33,18.015c-0.073,5.456,0.497,10.893,0.062,16.372c-0.361,4.549-0.562,9.125-1.29,13.619
					c-2.787,17.207-5.877,34.36-9.897,51.333c-1.108,4.677-2.101,9.383-3.082,14.089c-0.457,2.191-0.192,2.588,1.909,3.166
					c1.49,0.41,3.012,0.71,4.528,1.02c13.397,2.733,26.996,3.422,40.606,3.888c7.505,0.257,15.013,0.064,22.472-0.961
					c3.714-0.511,7.429-1.023,11.128-1.627c2.506-0.409,2.568-0.483,2.494-2.943c-0.103-3.418-0.236-6.841-0.522-10.247
					c-0.734-8.755-1.569-17.501-2.346-26.252c-0.568-6.403-1.658-12.764-1.394-19.236c0.096-2.353-0.166-4.715-0.34-7.073
					c-0.359-4.868-1.153-9.705-1.121-15.225c0.654,2.225,1.086,3.95,1.672,5.621c0.621,1.771,1.533,3.408,2.522,5.014
					c2.344,3.809,6.842,4.224,10.049,2.242c1.604-0.991,3.124-2.118,4.308-3.594c3.757-4.682,6.197-10.137,8.942-15.411
					C171.109,267.788,170.745,267.366,170.043,267.078z"/>
				<path style="fill:#7D7A79;" d="M129.88,315.646c0,10.615,0.017,21.23-0.013,31.845c-0.007,2.365-0.121,4.735-0.293,7.094
					c-0.097,1.334-0.801,1.918-1.826,1.806c-0.987-0.108-1.67-0.906-1.598-2.104c0.824-13.63,0.051-27.263,0.063-40.893
					c0.012-13.143,0.017-26.296-1.089-39.412c-0.027-0.325-0.054-0.654-0.036-0.978c0.076-1.327,0.627-2.048,1.588-2.108
					c0.976-0.062,1.633,0.575,1.761,1.913c0.202,2.112,0.337,4.232,0.458,6.35C129.585,291.311,129.526,303.48,129.88,315.646z"/>
				<path style="fill:#7D7A79;" d="M87.01,295.765c0-0.764-0.035-1.175,0.006-1.579c0.201-2.003,0.78-2.625,2.766-2.6
					c5.549,0.071,11.098,0.207,16.646,0.341c1.468,0.036,2.94,0.1,4.399,0.252c2.204,0.23,3.027,1.292,2.676,3.47
					c-0.469,2.912-1.275,5.729-2.601,8.38c-0.999,1.998-2.318,3.745-4.079,5.132c-5.29,4.168-10.83,3.097-14.984-1.03
					C88.332,304.647,87.19,300.19,87.01,295.765z M110.01,295.671c-0.652-0.096-1.045-0.173-1.441-0.21
					c-5.453-0.506-10.929-0.253-16.39-0.487c-0.325-0.014-0.653-0.003-0.978,0.024c-0.595,0.05-0.854,0.404-0.807,0.981
					c0.326,4.011,1.352,7.735,4.569,10.467c3.047,2.587,6.666,2.611,9.816,0.004C108.12,303.687,109.241,299.837,110.01,295.671z"/>
				<path style="fill:#7D7A79;" d="M124.205,239.443c0.435-0.584,0.187-1.305,0.19-1.973c0.029-5.941,0.028-11.883,0.048-17.824
					c0.001-0.47,0.001-0.968,0.159-1.402c0.262-0.722,0.803-1.206,1.694-1.141c0.764,0.055,1.26,0.508,1.424,1.153
					c0.173,0.685,0.23,1.412,0.222,2.12c-0.082,7.447-0.177,14.893,0.082,22.338c0.008,0.237-0.006,0.475-0.01,0.713
					c-0.02,1.089-0.266,2.117-1.474,2.516c-1.157,0.382-1.889-0.407-2.536-1.142c-6.268-7.114-13.013-13.847-18.938-21.236
					c-0.758-0.945-1.575-1.848-2.394-2.746c-0.722-0.791-1.15-1.61-0.293-2.525c0.707-0.754,1.776-0.639,2.855,0.356
					c0.716,0.66,1.361,1.399,1.964,2.156c5.091,6.396,10.761,12.329,16.306,18.363C123.659,239.338,123.816,239.538,124.205,239.443
					z"/>
				<path style="fill:#7D7A79;" d="M134.526,298.618c-0.287-5.138,0.326-5.821,5.408-6.029c0.976-0.04,1.952-0.091,2.928-0.132
					c1.052-0.044,1.998,0.14,2.242,1.368c0.201,1.012-0.473,1.705-2.007,1.934c-1.203,0.179-2.432,0.245-3.65,0.249
					c-1.282,0.004-1.675,0.568-1.605,1.805c0.107,1.872,0.217,3.742,0.561,5.584c0.556,2.975,2.366,4.924,5.116,6.059
					c0.525,0.216,1.099,0.331,1.592,0.6c0.699,0.381,1.1,1.011,0.867,1.83c-0.223,0.786-0.83,1.221-1.64,1.215
					c-0.475-0.003-0.964-0.145-1.42-0.302c-3.878-1.335-6.531-3.864-7.628-7.89C134.728,302.849,134.652,300.73,134.526,298.618z"/>
			</g>
			<g>
				<path d="M151.45,452.026c-1.05,0.301-2.276,0.306-3.493,0.226c-6.571-0.436-13.14-0.906-19.71-1.352
					c-4.76-0.323-5.027-0.624-4.662-5.429c0.006-0.081,0.008-0.164,0.027-0.243c0.322-1.325-0.527-2.98,0.564-3.97
					c0.979-0.889,2.511-0.246,3.785-0.292c2.923-0.106,5.849-0.285,8.78-0.1c1.104,0.07,2.168,0.254,2.869,1.121
					c2.913,3.606,7.035,5.138,11.183,6.639c0.306,0.111,0.633,0.167,0.932,0.291c0.769,0.318,1.595,0.706,1.604,1.644
					C153.34,451.619,152.325,451.681,151.45,452.026z"/>
				<path style="fill:#367294;" d="M112.673,357.229c2.356-0.259,4.885-0.218,7.382-0.307c5.711-0.203,11.37-0.931,17.057-1.367
					c1.543-0.118,3.084-0.27,4.629-0.374c1.717-0.116,1.728-0.102,1.978,1.58c0.599,4.034,0.732,8.105,0.96,12.168
					c0.329,5.853,0.829,11.698,0.896,17.565c0.071,6.113,0.626,12.217,0.379,18.336c-0.303,7.487-0.558,14.977-0.985,22.457
					c-0.227,3.975-0.557,7.959-1.44,11.866c-0.56,2.475-0.542,2.49-2.993,2.493c-5.712,0.008-11.423,0.044-17.132-0.202
					c-1.86-0.08-1.856-0.064-1.916-1.937c-0.164-5.129-0.19-10.267-0.526-15.384c-1.173-17.861-2.67-35.689-6.097-53.294
					c-0.793-4.075-1.532-8.16-2.294-12.241C112.499,358.203,112.299,357.818,112.673,357.229z"/>
			</g>
		</g>
		<g>
			<path style="fill:#002958;" d="M230.62,169.713c-2.021-0.085-4.231-0.035-6.409-0.474c-0.653-0.132-1.158-0.198-1.523,0.686
				c-3.113,7.541-6.373,15.022-9.445,22.58c-6.643,16.341-14.12,32.308-21.514,48.313c-2.776,6.008-5.811,11.885-9.59,17.341
				c-2.053,2.963-4.293,5.772-7.219,7.943c-1.753,1.3-3.669,2.136-5.923,1.834c-4.259-0.569-6.548-2.96-6.919-7.26
				c-0.265-3.073,0.449-6.01,1.368-8.9c2.107-6.627,4.861-12.989,7.967-19.205c7.7-15.411,15.983-30.517,23.935-45.796
				c3.806-7.313,7.319-14.781,11.416-21.94c0.699-1.222,0.234-1.648-0.721-2.253c-7.717-4.884-13.551-11.443-17.465-19.712
				c-11.831-24.994,0.911-55.112,27.088-63.99c27.302-9.259,56.106,7.795,61.205,36.238c4.548,25.371-13.301,50.232-38.748,54.019
				C235.686,169.497,233.252,169.657,230.62,169.713z M230.949,162.503c21.918-0.112,39.45-17.885,39.293-39.835
				c-0.156-21.798-17.87-39.176-39.778-39.022c-21.794,0.153-39.238,17.843-39.073,39.758
				C191.548,144.358,208.254,162.325,230.949,162.503z"/>
			<path style="fill:#CCDEEA;" d="M198.539,129.887c-1.862,0.016-3.18-1.682-2.698-3.485c0.216-0.809,0.733-1.447,1.243-2.082
				c4.487-5.587,8.971-11.176,13.477-16.748c0.507-0.627,1.084-1.233,1.733-1.702c1.107-0.801,2.426-0.707,3.386,0.101
				c1.06,0.892,1.312,2.232,0.615,3.525c-0.229,0.425-0.542,0.812-0.856,1.183c-4.735,5.596-9.259,11.363-13.798,17.117
				C200.832,128.82,200.057,129.908,198.539,129.887z"/>
			<path style="fill:#CCDEEA;" d="M221.73,120.269c-0.008,0.956-0.46,1.711-1.06,2.411c-4.94,5.77-9.63,11.742-14.306,17.724
				c-0.3,0.383-0.617,0.777-1.003,1.065c-1.011,0.756-2.103,0.856-3.196,0.162c-1.1-0.699-1.406-1.744-1.195-2.977
				c0.143-0.836,0.642-1.498,1.146-2.136c4.551-5.769,9.057-11.575,13.851-17.148c0.479-0.557,0.927-1.148,1.588-1.51
				C219.512,116.786,221.758,118.084,221.73,120.269z"/>
			<path style="fill:#CCDEEA;" d="M200.644,112.68c-2.502-0.018-3.801-2.282-2.669-4.203c0.614-1.043,1.44-1.969,2.224-2.903
				c2.985-3.555,5.988-7.095,8.996-10.631c0.42-0.494,0.86-0.993,1.371-1.384c1.127-0.863,2.611-0.815,3.602,0.039
				c1.043,0.899,1.266,2.234,0.543,3.541c-0.234,0.422-0.561,0.798-0.873,1.171c-3.501,4.185-7.007,8.366-10.511,12.548
				C202.524,111.813,201.657,112.657,200.644,112.68z"/>
			<path style="fill:#CCDEEA;" d="M212.594,147.127c-2.424,0.014-3.774-1.879-3.031-3.724c0.268-0.664,0.747-1.26,1.201-1.829
				c3.256-4.081,6.53-8.147,9.801-12.216c0.255-0.317,0.506-0.646,0.807-0.916c1.248-1.121,2.599-1.225,3.769-0.32
				c1.138,0.88,1.422,2.336,0.646,3.736c-0.353,0.636-0.834,1.207-1.292,1.779c-3.06,3.82-6.132,7.63-9.195,11.447
				C214.472,146.117,213.643,147.134,212.594,147.127z"/>
		</g>
		<g>
			<path style="fill:#F48B63;" d="M188.019,231.794c1.573-0.04,2.587-0.995,3.793-1.404c1.179-0.399,2.206-1.299,3.832-1.026
				c-1.322,2.461-3.896,3.311-5.697,5.441c2.348-0.593,4.152-1.704,6.102-2.426c0.379-0.14,0.729-0.373,1.115-0.469
				c0.192-0.048,0.487,0.061,0.648,0.2c0.323,0.281,0.095,0.519-0.109,0.801c-1.265,1.752-3.078,2.86-4.795,4.066
				c-0.599,0.421-1.275,0.704-1.636,1.668c2.19-0.41,3.942-1.981,6.327-1.794c-1.012,2.203-3.012,3.087-4.734,4.182
				c-3.509,2.233-7.296,3.767-11.408,4.697c-2.479,0.561-4.754,2.025-7.123,3.079c-0.445,0.198-0.889,0.414-1.354,0.549
				c-0.701,0.204-1.204,0.091-1.459-0.765c-0.834-2.799-1.749-5.574-2.621-8.362c-0.144-0.462-0.148-0.982-0.357-1.405
				c-0.522-1.058-0.194-1.658,0.851-2.084c1.969-0.802,3.577-2.208,5.369-3.308c0.583-0.358,0.909-0.892,1.301-1.415
				c1.708-2.279,3.552-4.446,5.577-6.453c0.405-0.402,0.797-0.831,1.262-1.153c0.523-0.362,1.123-0.814,1.771-0.269
				c0.589,0.495,0.122,1.01-0.046,1.542c-0.542,1.715-1.655,3.124-2.661,4.939c1.586-0.313,2.813-0.84,4.014-1.418
				c1.685-0.811,3.345-1.675,5.027-2.494c0.36-0.175,0.763-0.273,1.156-0.367c0.331-0.079,0.731-0.011,0.829,0.305
				c0.082,0.264,0.007,0.724-0.182,0.9c-0.891,0.83-1.843,1.595-2.778,2.378C189.417,230.447,188.59,230.715,188.019,231.794z"/>
			<path style="fill:#A9A7A5;" d="M126.387,270.568c-2.437-0.057-4.601-0.443-6.705-1.122c-3.411-1.101-6.62-2.608-9.625-4.594
				c-7.217-4.77-14.386-9.598-20.899-15.324c-2.633-2.315-5.176-4.706-7.294-7.534c-3.359-4.483-3.525-12.007,1.29-16.517
				c2.38-2.229,5.193-2.93,8.372-2.276c2.501,0.514,4.8,1.555,7.084,2.647c6.814,3.255,12.916,7.584,18.758,12.324
				c3.164,2.567,6.441,4.994,9.633,7.529c1.681,1.335,3.319,1.576,5.403,0.752c11.212-4.434,22.583-8.442,33.967-12.411
				c1.714-0.598,1.888-0.557,2.336,0.942c1.492,4.994,2.997,9.985,4.409,15.003c0.732,2.602,0.582,2.973-1.746,4.008
				c-10.721,4.764-21.247,9.988-32.302,13.975C134.908,269.47,130.606,270.375,126.387,270.568z"/>
		</g>
	</g>
	<g>
		<g>
			<path d="M630.039,317.618c0.057,0.712-0.187,1.4-0.698,1.962c-0.547,0.602-1.098,1.219-1.738,1.713
				c-5.031,3.884-9.892,7.988-15.105,11.633c-0.931,0.651-1.905,1.272-2.935,1.741c-0.996,0.454-2.083,0.535-2.936-0.394
				c-0.887-0.966-0.571-1.985,0.039-2.917c1.205-1.84,2.462-3.646,3.709-5.458c1.778-2.584,3.123-5.36,3.491-8.502
				c0.166-1.415,0.956-1.98,2.209-2.162c3.223-0.469,6.443-0.965,9.673-1.378C628.397,313.516,630.005,314.947,630.039,317.618z"/>
			<path style="fill:#367294;" d="M612.885,317.651c-2.316,0.014-3.036-0.484-3.488-2.602c-2.362-11.094-5.232-22.071-7.427-33.206
				c-1.632-8.282-2.796-16.573-2.593-25.034c0.165-6.89,1.111-13.662,2.805-20.335c0.241-0.948,0.466-1.87,0.455-2.879
				c-0.017-1.604,1.004-2.324,2.579-1.977c7.164,1.579,14.327,3.165,21.49,4.749c0.159,0.035,0.314,0.092,0.472,0.133
				c2.916,0.755,3.393,1.63,2.203,4.347c-1.482,3.383-2.675,6.846-3.104,10.528c-0.322,2.758-0.553,5.525-0.516,8.308
				c0.104,7.765,0.765,15.492,1.56,23.211c0.929,9.014,1.84,18.03,2.751,27.046c0.066,0.649,0.077,1.304,0.099,1.957
				c0.047,1.414-0.611,2.385-1.968,2.729C623.06,315.929,617.874,317.025,612.885,317.651z"/>
		</g>
		<g>
			<path d="M664.417,320.157c0.086,0.709-0.128,1.406-0.615,1.989c-0.521,0.624-1.047,1.263-1.665,1.784
				c-4.865,4.09-9.551,8.393-14.607,12.252c-0.903,0.689-1.851,1.35-2.86,1.862c-0.976,0.495-2.058,0.621-2.95-0.271
				c-0.927-0.928-0.654-1.96-0.082-2.916c1.127-1.888,2.308-3.745,3.478-5.608c1.669-2.656,2.897-5.485,3.134-8.64
				c0.107-1.421,0.872-2.018,2.117-2.252c3.201-0.603,6.397-1.232,9.608-1.78C662.607,316.127,664.272,317.491,664.417,320.157z"/>
			<path style="fill:#367294;" d="M647.28,320.905c-2.314,0.11-3.054-0.357-3.593-2.454c-2.822-10.986-6.147-21.834-8.803-32.868
				c-1.976-8.207-3.483-16.442-3.633-24.905c-0.122-6.891,0.541-13.697,1.956-20.434c0.201-0.958,0.388-1.888,0.335-2.895
				c-0.084-1.602,0.906-2.364,2.495-2.083c7.224,1.279,14.446,2.565,21.669,3.85c0.161,0.029,0.317,0.079,0.477,0.113
				c2.944,0.633,3.458,1.488,2.382,4.251c-1.34,3.441-2.387,6.951-2.663,10.648c-0.207,2.769-0.322,5.544-0.169,8.322
				c0.427,7.754,1.409,15.447,2.525,23.126c1.303,8.967,2.589,17.938,3.875,26.908c0.093,0.646,0.131,1.3,0.18,1.951
				c0.106,1.411-0.511,2.408-1.853,2.808C657.375,318.76,652.238,320.072,647.28,320.905z"/>
		</g>
		<g>
			<path style="fill:#E0DFDD;" d="M669.942,185.576c-0.536-9.215-1.697-18.374-2.754-27.538c-0.655-5.677-1.594-11.304-3.339-16.785
				c-3.125-9.818-9.001-17.467-17.687-22.974c-0.686-0.435-1.423-0.805-2.171-1.125c-2.685-1.146-3.318-0.968-5.391,1.077
				c-4.772,4.707-9.291,9.646-13.664,14.723c-0.508,0.589-0.859,1.398-1.726,1.603c-0.514-0.356-0.401-0.89-0.421-1.356
				c-0.004-0.1-0.006-0.201-0.01-0.301c-0.017-0.064-0.019-0.131-0.007-0.202c-0.008-0.247-0.016-0.494-0.024-0.741
				c-0.128-0.089-0.221-0.227-0.213-0.386c0.064-1.245-0.122-2.484-0.325-3.708c-0.012-0.073-0.009-0.144,0.003-0.213
				c-0.195-0.654-0.387-1.309-0.519-1.976c-0.323-0.147-0.752-0.244-1.366-0.32c-3.888-0.484-7.785-0.899-11.672-1.398
				c-8.66-1.113-16.91-3.532-24.627-7.695c-5.462-2.947-10.96-5.83-16.039-9.42c-1.02-0.721-1.687-0.905-2.57,0.279
				c-1.067,1.43-2.48,2.596-3.617,3.98c-0.742,0.904-2,1.059-2.618,2.123c-1.188,2.045-2.423,4.066-3.736,6.033
				c-0.663,0.993-0.55,1.792,0.122,2.667c1.4,1.823,3.015,3.436,4.745,4.939c5.947,5.165,12.437,9.543,19.411,13.185
				c9.737,5.085,20.01,8.785,30.61,11.605c1.115,0.297,2.158,0.337,1.997,2.086c-0.718,7.821-0.369,15.672-0.452,23.511
				c-0.101,9.547-1.428,18.871-4.854,27.839c-1.136,2.973-2.222,5.965-3.301,8.959c-1.577,4.375-3.24,8.723-4.157,13.306
				c-0.869,4.341-0.719,4.529,3.504,5.9c8.415,2.733,17.086,4.284,25.786,5.717c10.568,1.741,21.185,2.956,31.912,3.009
				c3.808,0.019,4.577-0.596,5.278-4.256c0.077-0.4,0.129-0.805,0.187-1.209c0.757-5.252,1.483-10.508,2.275-15.754
				C670.275,209.08,670.627,197.346,669.942,185.576z"/>
			<path style="fill:#7D7A79;" d="M626.088,170.834c-0.934,9.928-2.182,19.784-5.596,29.251c-2.822,7.828-5.807,15.609-7.876,23.688
				c-0.75,2.927-1.345,5.888-1.777,8.879c-0.082,0.567-0.109,1.141-0.411,1.649c-0.416,0.701-1.026,1.058-1.841,0.908
				c-0.849-0.156-1.255-0.766-1.257-1.574c-0.002-0.729,0.1-1.465,0.223-2.187c1.116-6.533,2.812-12.912,5.028-19.16
				c1.965-5.538,3.983-11.06,5.775-16.655c2.655-8.288,3.782-16.864,4.363-25.52c0.06-0.892-0.076-1.804,0.249-2.669
				c0.283-0.753,0.788-1.274,1.638-1.203c0.828,0.069,1.386,0.611,1.459,1.41C626.161,168.707,626.088,169.774,626.088,170.834z"/>
			<path style="fill:#7D7A79;" d="M646.514,207.922c-5.096,0.016-8.747-3.218-9.56-8.624c-0.451-2.997-0.267-6.019,0.271-8.994
				c0.438-2.422,1.021-2.803,3.513-2.422c2.897,0.443,5.782,0.961,8.668,1.474c2.324,0.413,4.647,0.839,6.959,1.31
				c2.239,0.456,2.925,1.409,2.48,3.639c-0.676,3.387-1.889,6.585-3.96,9.379C652.821,206.469,650.052,207.987,646.514,207.922z
				 M640.504,191.363c-0.336,3.207-0.824,6.265,0.315,9.277c1.013,2.678,2.998,3.977,5.846,3.921
				c2.179-0.043,3.934-0.923,5.297-2.613c1.036-1.285,1.739-2.754,2.357-4.268c1.48-3.622,1.485-3.679-2.36-4.38
				C648.203,192.617,644.476,191.734,640.504,191.363z"/>
		</g>
		<g>
			<path style="fill:#F48B63;" d="M542.895,149.711c-2.544-2.36-6.143-3.276-8.225-6.375c1.468-0.42,1.472-0.432,4.15,0.482
				c1.368,0.467,2.719,0.986,4.26,1.186c-1.377-1.027-2.756-2.051-4.129-3.083c-0.518-0.389-1.031-0.785-1.525-1.204
				c-0.191-0.162-0.29-0.443-0.119-0.649c0.137-0.164,0.394-0.323,0.596-0.321c1.002,0.009,1.88,0.488,2.786,0.835
				c1.581,0.606,3.147,1.252,5.263,2.098c-1.524-1.622-2.984-2.339-4.261-3.298c-0.861-0.646-2.526-1.381-1.944-2.434
				c0.71-1.284,1.966,0.155,2.938,0.477c2.685,0.891,5.141,2.404,8.11,3.102c-0.055-1.258-0.866-1.96-1.347-2.813
				c-0.399-0.708-0.756-1.44-1.169-2.139c-0.36-0.609-0.573-1.296-0.029-1.787c0.562-0.507,1.236-0.175,1.759,0.27
				c0.868,0.739,1.756,1.462,2.559,2.268c1.206,1.212,2.488,2.386,3.484,3.76c2.217,3.059,5.571,4.35,8.753,5.905
				c1.453,0.709,3.043,1.132,4.544,1.751c1.585,0.653,1.646,0.855,1.264,2.564c-0.657,2.94-1.745,5.743-2.746,8.571
				c-0.661,1.865-1.168,2.088-3.139,1.561c-3.373-0.902-6.656-2.081-9.842-3.505c-0.904-0.404-1.819-0.702-2.77-0.88
				c-5.513-1.033-10.553-3.201-15.226-6.267c-0.271-0.178-0.564-0.324-0.839-0.497c-0.293-0.185-0.529-0.501-0.421-0.8
				c0.141-0.391,0.536-0.668,0.977-0.563c1.182,0.283,2.354,0.613,3.524,0.946C541.057,149.134,541.974,149.429,542.895,149.711z"/>
			<path style="fill:#A9A7A5;" d="M594.456,172.003c-8.301-0.353-19.631-2.436-30.426-7.039c-1.577-0.673-3.129-1.413-4.483-2.485
				c-1.469-1.163-1.736-2.062-1.19-3.859c0.142-0.467,0.32-0.928,0.529-1.37c1.784-3.758,3.527-7.537,5.389-11.257
				c1.32-2.638,2.081-2.831,4.867-1.816c3.14,1.144,6.271,2.327,9.458,3.328c9.273,2.914,18.128,2.193,26.596-2.906
				c7.629-4.594,14.938-9.654,22.292-14.655c4.483-3.048,9.277-5.449,14.526-6.874c2.677-0.727,5.319-0.647,7.909,0.439
				c4.534,1.901,6.772,6.45,5.516,11.196c-0.359,1.356-0.906,2.628-1.622,3.816c-2.622,4.355-5.703,8.321-9.461,11.795
				c-7.432,6.87-15.711,12.413-24.782,16.903C612.675,170.636,605.46,172.179,594.456,172.003z"/>
		</g>
		<g>
			<path style="fill:#F48B63;" d="M615.552,106.075c0.395-0.977,0.574-1.71,0.957-2.312c1.033-1.625,2.751-1.792,4.119-0.42
				c0.573,0.574,1.048,1.248,1.542,1.896c1.045,1.372,2.207,2.626,3.66,3.571c0.912,0.594,1.953,1.123,2.96,0.413
				c0.993-0.699,1.422-0.223,1.95,0.52c1.04,1.462,2.156,2.863,3.442,4.126c1.693,1.663,3.615,3.004,5.737,4.05
				c-1.659,3.067-14.519,15.384-17.079,16.326c-0.405-1.15-0.517-2.334-0.576-3.534c-0.056-1.14-0.07-2.292-0.249-3.416
				c-0.381-2.393-0.59-2.515-2.931-1.706c-3.069,1.061-5.596,0.091-7.856-1.974c-1.699-1.552-3.15-3.304-4.286-5.316
				c-0.391-0.692-0.665-1.477-1.429-2.011c-1.183,0.687-2.37,1.385-3.568,2.065c-0.353,0.2-0.763,0.392-1.116,0.041
				c-0.345-0.343-0.168-0.756-0.01-1.132c0.285-0.677,0.584-1.348,0.877-2.022c1.241-2.859,1.621-5.718,0.617-8.797
				c-1.024-3.14-0.876-3.172,2.232-4.521c1.72-0.748,3.403-1.582,5.125-2.326c1.599-0.691,1.814-0.626,2.735,0.921
				C613.445,102.265,614.413,104.054,615.552,106.075z"/>
			<path d="M611.134,101.753c-3.44,1.892-6.955,3.17-10.718,3.628c-3.721,0.453-6.914-0.705-9.518-3.436
				c-0.629-0.66-1.126-1.408-1.493-2.226c-1.153-2.574-0.533-3.748,2.273-4.28c0.794-0.15,1.619-0.14,2.429-0.204
				c0.787-0.063,1.621,0.176,2.336-0.329c0.149-0.735-0.57-0.718-0.873-1.033c-0.761-0.791-1.433-1.544-1.059-2.782
				c0.38-1.259,1.316-1.915,2.47-2.105c1.195-0.197,2.459-0.247,3.659-0.093c3.296,0.423,6.499-0.201,9.705-0.716
				c2.512-0.403,5.024-0.583,7.556-0.501c3.795,0.123,7.034,1.494,9.279,4.637c3.098,4.335,5.128,9.062,4.746,14.553
				c-0.017,0.244-0.013,0.491-0.048,0.733c-0.41,2.802-2.156,3.765-4.831,2.63c-1.937-0.822-3.306-2.347-4.675-3.87
				c-0.707-0.786-1.385-1.635-2.224-2.258c-1.056-0.784-1.793-0.358-1.954,0.991c-0.048,0.403-0.007,0.817-0.032,1.224
				c-0.057,0.944-0.638,1.455-1.48,1.735c-0.957,0.318-1.301-0.413-1.709-1.013C613.787,105.288,612.723,103.448,611.134,101.753z"
				/>
			<g>
				<path d="M607.747,110.39c0.011,0.851,0.709,1.532,1.56,1.521c0.851-0.011,1.532-0.709,1.521-1.56
					c-0.011-0.851-0.709-1.532-1.56-1.521C608.417,108.841,607.736,109.539,607.747,110.39z"/>
				<path d="M604.381,109.311c0.069,0.172,7.056-2.838,7.056-2.838c-0.306-0.76-2.133-0.742-4.082,0.042
					C605.407,107.299,604.075,108.551,604.381,109.311z"/>
				<path style="fill:#BF6443;" d="M606.788,118.717c0.286,0.463,0.618,0.925,0.962,1.364c0.185-0.107,0.382-0.227,0.579-0.346
					c1.943-1.238,3.124-2.863,2.636-3.614C610.905,116.028,608.707,117.445,606.788,118.717z"/>
			</g>
		</g>
	</g>
</g>
</svg>
